<svg width="55" height="55" viewBox="0 0 55 55" fill="none" xmlns="http://www.w3.org/2000/svg">
<path d="M15.5752 35.9402C15.9239 35.9446 16.1301 35.5574 16.2302 35.223C16.6004 33.9872 16.629 32.6512 16.3127 31.4005L15.8007 31.4297C15.9816 32.1958 15.4267 33.056 14.6539 33.2073C14.543 33.9497 14.6498 34.7084 14.9614 35.3913C15.0824 35.6548 15.2848 35.9369 15.5752 35.9402ZM41.0913 32.7475C40.6277 32.6358 40.6497 31.961 40.3653 31.5782C39.9259 30.9864 38.9964 31.2949 38.3534 31.6546C37.3634 32.2079 36.3338 32.7211 35.3713 33.3217C34.2383 34.0284 34.1261 35.4298 33.9485 36.6178C33.8599 37.2107 33.5437 37.703 34.0849 38.0786C35.1084 38.7892 36.55 37.1084 37.5818 36.9555C38.9551 36.752 39.036 38.6886 39.8764 39.414C40.0639 39.5735 40.2838 39.6904 40.5209 39.7567C40.758 39.823 41.0066 39.8371 41.2497 39.7979C41.4921 39.7552 41.7224 39.6604 41.9247 39.5201C42.1269 39.3797 42.2963 39.1972 42.4212 38.985C42.617 38.2161 42.9514 37.7327 43.4046 37.0787C43.7324 36.6057 44.0762 36.07 43.9893 35.5013C43.9128 35.0014 43.5245 34.6186 43.2275 34.2088C42.8743 33.7143 42.6364 33.1468 42.5315 32.5482C42.4265 31.9496 42.457 31.3351 42.6208 30.7499C42.1534 30.7471 41.9708 31.3444 41.9004 31.807C41.8294 32.269 41.5462 32.8569 41.0913 32.7475ZM28.8912 25.7927L28.8164 26.0325C29.2564 26.225 29.5034 26.6843 29.7443 27.0995C29.9841 27.5126 30.2492 27.9124 30.5671 28.2688C30.9302 28.6738 31.3548 29.0191 31.8255 29.2918C32.6576 29.7747 33.6014 30.0228 34.5326 30.2653C35.175 30.4325 35.8239 30.6008 36.4872 30.6256C37.1506 30.6503 37.8397 30.5194 38.3809 30.135C36.9932 30.0624 35.5776 30.1113 34.2438 29.7203C33.0397 29.3646 31.9645 28.6675 31.1484 27.7133C30.8201 27.3278 30.5368 26.9032 30.1843 26.5385C29.8323 26.1739 29.3928 25.8653 28.8912 25.7927Z" fill="white"/>
<path d="M34.7428 28.7731C34.8605 28.7803 34.9837 28.7786 35.0882 28.7247C35.3368 28.5966 35.3627 28.2605 35.3935 27.9828C35.444 27.5241 35.5942 27.0821 35.8335 26.6875C35.9484 26.4983 36.0843 26.3185 36.1569 26.1095C36.2295 25.9005 36.2256 25.6469 36.0788 25.4814C35.9105 25.2911 35.6085 25.2784 35.3726 25.373C35.1366 25.4671 34.9463 25.6458 34.7467 25.802C34.431 26.049 34.0779 26.2492 33.7842 26.5225C33.4905 26.7953 33.254 27.1666 33.2661 27.5675C33.2765 27.9162 33.4806 28.2424 33.7622 28.4492C34.0432 28.6554 34.3941 28.7517 34.7428 28.7731ZM39.5311 27.7468C39.447 28.1192 39.7682 28.4635 40.1048 28.6439C40.4414 28.8248 40.8324 28.9337 41.0871 29.2181C41.2878 29.4425 41.3736 29.7439 41.521 30.0062C41.6679 30.2686 41.9302 30.5144 42.2289 30.4759C42.4995 30.4413 42.7096 30.1822 42.9818 30.1778C43.2827 30.1729 43.4867 30.466 43.6737 30.7025C43.8602 30.9385 44.1935 31.159 44.4388 30.9841C44.6351 30.8444 44.6142 30.5265 44.4608 30.3412C44.3073 30.1558 44.0675 30.0695 43.8398 29.9914C43.8195 29.8995 43.8235 29.8039 43.8516 29.714C43.8797 29.6242 43.9308 29.5433 43.9999 29.4793L41.9715 28.2787C41.6954 28.1153 41.3676 27.947 41.07 28.0658C40.8489 28.1544 40.6707 28.3936 40.4353 28.3573C40.2395 28.3271 40.1317 28.1219 40.0217 27.9569C39.9117 27.7919 39.6961 27.6374 39.5311 27.7468ZM39.832 14.7531C39.6901 14.4093 39.4222 14.0557 39.5504 13.707C39.5768 13.6349 39.6202 13.5651 39.6142 13.4886C39.6032 13.3566 39.4596 13.2868 39.3447 13.2213C38.8706 12.9518 38.6462 12.4046 38.3761 11.931C38.1061 11.4575 37.66 10.9795 37.1177 11.0384L37.7766 11.8964C38.2474 12.5096 38.7276 13.1405 38.9503 13.8802C39.1731 14.6205 39.0873 15.5044 38.5362 16.0467C38.3706 16.2095 38.1715 16.3349 37.9977 16.4889C37.8239 16.6429 37.6699 16.8392 37.6402 17.0697C37.6105 17.3001 37.7431 17.5625 37.9702 17.612C38.1187 17.6444 38.2711 17.585 38.408 17.5185C38.9223 17.2688 39.3903 16.8964 39.6774 16.4014C39.9645 15.9064 40.0503 15.2816 39.832 14.7531ZM39.766 40.5668C39.717 40.6355 39.7077 40.7241 39.7 40.8082L39.6158 41.7262C39.7478 41.7938 39.8947 41.6712 39.9876 41.5557C40.2547 41.2239 40.4768 40.8583 40.6482 40.4683C40.5035 40.5239 40.3429 40.4777 40.1906 40.454C40.0388 40.4298 39.8556 40.4408 39.766 40.5668Z" fill="white"/>
<path d="M27.5005 1.43433C13.1224 1.43433 1.4668 13.0899 1.4668 27.468C1.4668 41.8461 13.1224 53.5017 27.5005 53.5017C41.8786 53.5017 53.5342 41.8461 53.5342 27.468C53.5342 13.0899 41.8786 1.43433 27.5005 1.43433ZM36.097 5.24473C35.5794 5.46858 35.0668 5.73478 34.5614 5.95258C32.6892 6.75888 30.6113 6.91288 28.5779 7.05643L25.3923 7.28138C25.3747 7.61248 25.0893 7.90838 24.7593 7.93808C24.4293 7.96833 24.0954 7.72853 24.0184 7.40623C23.002 8.14928 21.6369 8.39073 20.4269 8.04258C20.4286 7.58993 21.0666 7.29568 21.412 7.58883C21.5995 6.97118 21.0847 6.31723 20.4715 6.11483C19.8582 5.91243 19.1911 6.03673 18.558 6.16268C17.826 6.30843 17.0774 6.46023 16.435 6.84028C15.7926 7.22088 15.2652 7.88033 15.2492 8.62668L19.2857 6.88098L17.1489 8.77463C16.7172 9.15688 16.2233 9.56333 15.6469 9.53858C15.0705 9.51383 14.565 8.75978 14.9687 8.34783C14.2015 8.89123 13.2373 8.98363 12.2946 9.13158C16.4235 5.70013 21.7249 3.63433 27.5005 3.63433C30.531 3.63433 33.4284 4.20853 36.097 5.24473ZM9.7366 11.6C10.3531 11.5582 10.9906 11.8095 11.3893 12.2847C11.8706 12.8578 11.9778 13.718 11.6522 14.3923L12.9255 14.2636L13.0734 14.9418L14.3043 15.021C14.2493 15.8729 13.6597 16.6666 12.86 16.9663C12.0603 17.2655 11.0945 17.0538 10.4934 16.4477C10.0666 16.6869 9.58095 16.1479 9.5551 15.659C9.52925 15.17 9.7322 14.6783 9.63375 14.1987C9.5188 13.641 9.0062 13.2841 8.43695 13.1796C8.84757 12.6349 9.28118 12.1078 9.7366 11.6ZM32.2393 50.8271C32.3273 50.5977 32.3564 50.3519 32.2948 50.1104C32.7032 50.1665 33.1189 50.1347 33.514 50.0173C33.9091 49.8999 34.2746 49.6995 34.5861 49.4295C34.9293 48.593 34.447 47.6008 33.7149 47.0706C32.9829 46.5404 32.0605 46.3627 31.1717 46.1988C29.2176 45.8386 27.237 46.058 25.2823 46.2874C23.6686 46.4766 21.8454 46.8253 20.7058 48.0941C20.2322 48.621 19.9242 49.3245 19.8384 50.0307C10.445 46.8319 3.6668 37.9296 3.6668 27.468C3.6668 26.3334 3.75205 25.2185 3.90605 24.1251C4.19535 24.5123 4.63095 24.7928 5.1078 24.7796L6.57795 30.9281C7.18735 33.4762 7.8292 36.097 9.367 38.2183C9.69095 38.6655 10.0869 39.1082 10.621 39.249C11.4894 39.4778 12.3799 38.7865 12.7214 37.9554C13.063 37.1244 13.0069 36.1932 13.0047 35.2945C13.0013 31.2589 14.1734 27.3097 16.3778 23.9293C15.4962 24.2412 14.3401 24.481 13.7719 23.7385C13.5173 23.4057 13.4705 22.9635 13.4331 22.5466L13.0437 18.2148C13.7802 19.89 14.2146 21.6821 14.3269 23.5086C15.7306 23.3066 17.0537 22.7289 18.156 21.8366C18.4739 21.5786 18.7934 21.2486 18.8028 20.8394C18.8292 19.7075 16.7573 19.658 16.5197 18.5509C16.5604 18.7417 19.9671 19.7856 20.3868 20.0309C21.5451 20.708 21.8916 22.1435 22.4669 23.3172C22.6753 23.7423 22.7276 24.2439 22.9932 24.6377C23.1852 24.9215 23.5174 25.1377 23.8567 25.0915C24.6058 24.9892 25.1058 23.1483 25.4303 22.529C26.0628 21.3207 26.7811 20.5518 27.7353 21.7821C28.5449 22.8266 29.6488 24.0272 30.196 25.2334C30.6294 26.1882 30.7636 27.4543 32.1975 27.3982C32.3515 27.3921 31.3312 25.8554 31.2482 25.7515C30.7559 25.136 30.476 24.5244 30.1465 23.7775C30.5629 24.3094 31.1585 24.7417 31.8323 24.7939C32.5055 24.8456 33.2342 24.4243 33.3767 23.7643C33.5191 23.1043 32.8734 22.358 32.22 22.529C32.0517 22.1534 32.3729 21.7178 32.7535 21.561C33.1341 21.4048 33.562 21.4241 33.9641 21.3372C35.4166 21.0226 36.2174 19.0706 35.404 17.8265C34.986 17.1874 34.2286 16.4163 34.7192 15.8311C35.0074 15.4874 35.5915 15.5479 35.9221 15.8509C36.2526 16.154 36.3819 16.6165 36.449 17.0604L36.8648 16.9625C37.2476 15.1106 37.5858 13.0828 36.7047 11.4091C36.4561 10.9367 36.1113 10.3757 36.3879 9.91918C36.5458 9.65903 36.8571 9.54243 37.0886 9.34498C37.3202 9.14753 37.4511 8.73943 37.2025 8.56398L37.9884 8.59918C37.9296 9.89388 38.9091 11.1583 40.1774 11.4262C39.565 9.83072 39.1073 8.1801 38.8107 6.49708C46.261 10.5313 51.3331 18.4194 51.3331 27.4702C51.3342 38.9878 43.1188 48.6232 32.2393 50.8271Z" fill="white"/>
<path d="M46.4258 40.6235L42.2051 44.1061C44.1317 43.9186 45.8763 42.4792 46.4258 40.6235Z" fill="white"/>
</svg>
