<svg width="133" height="41" fill="none" xmlns="http://www.w3.org/2000/svg"><path d="M7.072 13.016v2.8c1.562 0 2.454.94 2.454 2.266 0 1.35-.898 2.32-2.454 2.32H.398v6.137c0 .23.125.355.357.355h2.252c.232 0 .357-.13.357-.355v-3.338h3.708c3.096 0 5.419-2.166 5.419-5.119.006-2.847-2.323-5.066-5.42-5.066ZM17.605 13.377c0-.23.131-.355.357-.355h2.252c.232 0 .357.13.357.355v7.386c0 2.065 1.152 3.539 3.274 3.539 2.074 0 3.298-1.403 3.298-3.54v-7.385c0-.23.13-.355.356-.355h2.252c.232 0 .357.13.357.355v7.41c0 3.592-2.4 6.314-6.263 6.314-3.833 0-6.24-2.722-6.24-6.314v-7.41ZM47.164 14.927c.179.13.203.278.078.456l-1.278 1.58c-.154.178-.333.201-.535.024-1.153-.917-2.632-1.426-4.397-1.426-1.741 0-2.686.485-2.686 1.272 0 .817.767 1.225 3.096 1.45 3.577.331 6.162 1.527 6.162 4.432 0 2.776-2.608 4.38-6.108 4.38-2.556 0-4.552-.61-6.394-2.136-.179-.13-.179-.308-.024-.51l1.2-1.603c.155-.201.333-.231.511-.077 1.409 1.095 2.734 1.58 4.754 1.58 2.145 0 3.12-.64 3.12-1.58 0-.994-.975-1.426-3.554-1.657-3.428-.278-5.704-1.296-5.704-4.178 0-2.522 2.43-4.125 5.776-4.125 2.252.006 4.35.769 5.983 2.118ZM55.32 13.016c.231 0 .356.13.356.355v4.912h6.34v-4.912c0-.23.131-.355.357-.355h2.252c.232 0 .357.13.357.355V26.54c0 .23-.125.355-.357.355h-2.252c-.232 0-.356-.13-.356-.355v-5.45h-6.34v5.45c0 .23-.132.355-.357.355h-2.252c-.232 0-.357-.13-.357-.355V13.377c0-.23.13-.355.357-.355h2.252v-.006ZM72.286 26.9h-1.718a.413.413 0 0 1-.416-.415v-1.71c0-.23.185-.414.416-.414h1.718c.231 0 .416.183.416.414v1.71a.42.42 0 0 1-.416.415ZM70.148 9.643l2.556-1.51V3.518h3.315V6.14L86.406.28l16.223 9.363 29.545.799-29.634.58-16.134-7.593-12.502 5.77-3.756 1.823" fill="#fff"/><path d="M79.16 9.619v6.19c.832-.829 2.074-1.237 3.732-1.237h1.242c2.49 0 3.731 1.237 3.731 3.717v8.67h-1.242v-8.67c0-1.651-.832-2.48-2.49-2.48h-1.241c-1.658 0-2.9.414-3.732 1.237v9.907h-1.242V9.613h1.242v.006ZM99.031 23.242c0 2.48-1.242 3.717-3.731 3.717h-2.49c-2.49 0-3.732-1.237-3.732-3.717V18.29c0-2.48 1.242-3.717 3.732-3.717h2.49c2.49 0 3.731 1.237 3.731 3.717v4.953Zm-8.705 0c0 1.651.832 2.48 2.49 2.48h2.49c1.657 0 2.49-.829 2.49-2.48V18.29c0-1.651-.833-2.48-2.49-2.48h-2.49c-1.658 0-2.49.829-2.49 2.48v4.953ZM109.322 26.959l-.374-1.237c-.826.828-2.074 1.237-3.732 1.237h-1.242c-2.49 0-3.732-1.237-3.732-3.717v-8.67h1.242v8.67c0 1.651.832 2.48 2.49 2.48h1.242c1.658 0 2.9-.414 3.732-1.237v-9.913h1.242V26.96h-.868ZM111.41 26.959v-1.237h5.598c1.658 0 2.49-.663 2.49-1.983v-.497c0-1.32-.832-1.982-2.49-1.982h-1.866c-2.49 0-3.732-.989-3.732-2.971v-.497c0-2.149 1.242-3.22 3.732-3.22h5.597v1.237h-5.597c-1.658 0-2.49.663-2.49 1.983v.497c0 1.154.832 1.734 2.49 1.734h1.866c2.49 0 3.731 1.071 3.731 3.22v.496c0 2.149-1.241 3.22-3.731 3.22h-5.598ZM123.191 21.384v1.858c0 1.651.832 2.48 2.49 2.48h5.598v1.237h-5.598c-2.49 0-3.732-1.237-3.732-3.717V18.29c0-2.48 1.242-3.717 3.732-3.717h2.484c2.49 0 3.732 1.237 3.732 3.717v3.095h-8.706Zm0-1.237h7.464V18.29c0-1.651-.826-2.48-2.49-2.48h-2.49c-1.658 0-2.49.829-2.49 2.48v1.858h.006ZM1.253 38.801.86 39.985H.355l1.284-3.77h.588l1.29 3.77h-.523l-.404-1.184H1.253Zm1.236-.384-.369-1.083a8.313 8.313 0 0 1-.196-.687h-.012a9.714 9.714 0 0 1-.19.68l-.368 1.09h1.135ZM8.207 36.269a6.728 6.728 0 0 1 1.04-.077c.701 0 1.2.16 1.533.467.339.308.535.746.535 1.356 0 .615-.19 1.118-.547 1.461-.356.35-.939.545-1.67.545a7.38 7.38 0 0 1-.885-.047v-3.705h-.006Zm.487 3.332c.125.023.303.03.493.03 1.046 0 1.61-.58 1.61-1.599.007-.887-.498-1.455-1.532-1.455-.25 0-.446.023-.57.047V39.6ZM16.904 39.985l-1.236-3.77h.529l.588 1.859c.16.509.303.964.404 1.408h.012c.107-.438.261-.911.434-1.402l.642-1.865h.522l-1.354 3.77h-.541ZM25.295 38.216h-1.468v1.36h1.64v.41H23.34v-3.77h2.044v.408h-1.557v1.19h1.468v.402ZM30.227 36.269c.25-.047.6-.077.938-.077.523 0 .856.095 1.094.308.19.165.297.426.297.716 0 .497-.315.828-.713.959v.017c.291.1.463.367.558.758.125.526.214.887.292 1.035h-.505c-.06-.106-.15-.432-.25-.9-.113-.52-.315-.715-.76-.733h-.464v1.633h-.487V36.27Zm.487 1.716h.499c.523 0 .856-.284.856-.716 0-.485-.357-.698-.868-.704-.238 0-.404.023-.481.047v1.373h-.006ZM38.149 36.63h-1.153v-.415h2.799v.415h-1.159v3.355h-.493V36.63h.006ZM44.839 36.215v3.77h-.487v-3.77h.487ZM49.752 39.394c.22.136.54.248.873.248.5 0 .79-.26.79-.645 0-.35-.201-.556-.712-.752-.618-.219-.999-.538-.999-1.065 0-.586.487-1.024 1.224-1.024.387 0 .666.089.838.184l-.136.396a1.538 1.538 0 0 0-.72-.177c-.516 0-.712.307-.712.562 0 .355.231.527.754.728.642.248.963.556.963 1.107 0 .58-.434 1.082-1.325 1.082-.363 0-.76-.106-.969-.242l.13-.402ZM57.206 36.215v3.77h-.487v-3.77h.487ZM62.191 39.985v-3.77h.535l1.212 1.906c.28.444.5.84.678 1.225l.012-.006a15.859 15.859 0 0 1-.054-1.55v-1.575h.458v3.77h-.493l-1.2-1.911c-.262-.42-.518-.853-.708-1.26l-.018.005c.03.473.042.93.042 1.556v1.61h-.464ZM72.893 39.82c-.22.076-.654.206-1.165.206-.57 0-1.046-.148-1.414-.497-.327-.313-.529-.816-.529-1.402.006-1.125.779-1.947 2.05-1.947.44 0 .779.094.945.171l-.119.397a1.976 1.976 0 0 0-.838-.16c-.92 0-1.52.568-1.52 1.515 0 .959.576 1.521 1.46 1.521.322 0 .542-.047.655-.1v-1.125h-.767v-.39h1.248v1.81h-.006ZM83.09 39.985v-3.77h.535l1.212 1.906c.28.444.499.84.677 1.225l.012-.006a15.828 15.828 0 0 1-.053-1.55v-1.575h.457v3.77h-.493l-1.2-1.911c-.262-.42-.517-.853-.707-1.26l-.018.005c.03.473.041.93.041 1.556v1.61h-.463ZM92.87 38.216H91.4v1.36h1.64v.41h-2.127v-3.77h2.044v.408h-1.557v1.19h1.468v.402ZM98.61 36.63h-1.153v-.415h2.799v.415h-1.159v3.355h-.493V36.63h.006ZM105.658 39.985l-.963-3.77h.517l.452 1.906c.113.468.214.94.279 1.302h.012c.059-.373.178-.823.309-1.308l.505-1.9h.511l.458 1.912c.107.45.208.893.261 1.29h.012c.077-.414.184-.834.303-1.302l.499-1.9h.499l-1.069 3.77h-.511l-.476-1.965c-.118-.479-.196-.852-.249-1.23h-.012c-.065.372-.155.745-.291 1.23l-.541 1.965h-.505ZM117.15 38.062c0 1.296-.791 1.983-1.759 1.983-.998 0-1.7-.77-1.7-1.912 0-1.196.749-1.977 1.759-1.977 1.034 0 1.7.787 1.7 1.906Zm-2.936.06c0 .804.44 1.526 1.207 1.526.772 0 1.212-.71 1.212-1.562 0-.752-.392-1.533-1.206-1.533-.809 0-1.213.745-1.213 1.568ZM121.918 36.269c.25-.047.6-.077.939-.077.523 0 .861.095 1.093.308.19.165.297.426.297.716 0 .497-.315.828-.713.959v.017c.291.1.464.367.553.758.125.526.214.887.291 1.035h-.505c-.059-.106-.149-.432-.256-.9-.112-.52-.314-.715-.754-.733h-.458v1.633h-.487V36.27Zm.493 1.716h.499c.523 0 .856-.284.856-.716 0-.485-.351-.698-.868-.704-.237 0-.404.023-.481.047v1.373h-.006ZM129.07 36.215h.488v1.817h.017c.101-.148.202-.278.298-.402l1.158-1.415h.606l-1.366 1.598 1.473 2.166h-.576l-1.248-1.852-.356.414v1.438h-.488v-3.764h-.006Z" fill="#fff"/></svg>