<svg width="172" height="41" fill="none" xmlns="http://www.w3.org/2000/svg"><path d="M49.922 20.794c-1.214 0-2.4-.133-3.558-.397-1.144-.28-2.086-.65-2.825-1.11l1.59-3.6c.698.405 1.48.733 2.345.984a9.406 9.406 0 0 0 2.49.356c.684 0 1.172-.063 1.465-.188.293-.14.44-.342.44-.607 0-.307-.196-.537-.587-.69-.376-.154-1.004-.322-1.883-.503-1.13-.237-2.072-.489-2.825-.754a4.95 4.95 0 0 1-1.968-1.339c-.558-.628-.837-1.472-.837-2.532 0-.921.258-1.758.775-2.512.516-.753 1.283-1.346 2.302-1.779 1.032-.432 2.28-.648 3.746-.648 1.004 0 1.988.111 2.95.334.977.21 1.835.524 2.575.942L54.63 10.33c-1.437-.726-2.797-1.088-4.08-1.088-1.27 0-1.906.307-1.906.92 0 .294.189.517.566.67.376.14.997.293 1.862.46 1.116.21 2.058.454 2.825.733.768.265 1.43.705 1.989 1.319.572.614.858 1.45.858 2.511 0 .92-.258 1.758-.774 2.511-.517.74-1.291 1.333-2.324 1.78-1.018.432-2.26.648-3.725.648ZM65.267 5.81c1.354 0 2.533.224 3.537.67 1.005.447 1.779 1.088 2.323 1.926.544.837.816 1.813.816 2.93 0 1.116-.272 2.092-.816 2.93-.544.837-1.318 1.478-2.323 1.925-1.004.446-2.183.67-3.537.67h-2.113v3.6h-4.94V5.81h7.053Zm-.314 7.242c.67 0 1.172-.147 1.507-.44.335-.307.502-.732.502-1.277 0-.544-.167-.962-.502-1.255-.335-.307-.837-.46-1.507-.46h-1.8v3.432h1.8Zm17.316 2.092v5.316H77.33v-5.378l-5.525-9.272h5.211l2.993 5.065 3.014-5.065h4.772l-5.526 9.334Zm7.701 5.484a1.962 1.962 0 0 1-1.444-.586c-.39-.391-.586-.88-.586-1.465 0-.6.195-1.082.586-1.444.39-.377.872-.565 1.444-.565s1.054.188 1.444.565c.39.362.586.844.586 1.444 0 .586-.195 1.074-.586 1.465-.39.39-.872.586-1.444.586ZM108.339 5.81v14.65H103.4v-5.4h-4.563v5.4h-4.939V5.81h4.94V11h4.562V5.81h4.939ZM118.4 20.793c-1.577 0-2.993-.328-4.249-.983-1.256-.656-2.239-1.563-2.951-2.721-.711-1.172-1.067-2.49-1.067-3.956 0-1.465.356-2.776 1.067-3.934.712-1.172 1.695-2.086 2.951-2.742 1.256-.655 2.672-.983 4.249-.983 1.576 0 2.992.328 4.248.983 1.256.656 2.239 1.57 2.951 2.742.711 1.158 1.067 2.47 1.067 3.934 0 1.465-.356 2.784-1.067 3.956-.712 1.158-1.695 2.065-2.951 2.72-1.256.656-2.672.984-4.248.984Zm0-3.997c.613 0 1.164-.147 1.653-.44.502-.307.9-.732 1.193-1.276.293-.558.439-1.207.439-1.947s-.146-1.38-.439-1.925a3.11 3.11 0 0 0-1.193-1.277 3.045 3.045 0 0 0-1.653-.46 3.15 3.15 0 0 0-1.675.46c-.488.293-.879.719-1.172 1.277-.293.544-.439 1.186-.439 1.925 0 .74.146 1.389.439 1.947.293.544.684.97 1.172 1.276.502.293 1.061.44 1.675.44Zm17.07 3.997c-2.247 0-3.997-.607-5.253-1.82-1.256-1.215-1.884-2.917-1.884-5.107V5.809h4.939v7.911c0 1.075.189 1.856.565 2.344.391.489.949.733 1.674.733.726 0 1.277-.244 1.654-.733.391-.488.586-1.27.586-2.344V5.81h4.855v8.057c0 2.19-.628 3.892-1.883 5.106-1.256 1.214-3.007 1.821-5.253 1.821Zm14.863 0c-1.214 0-2.4-.133-3.558-.397-1.144-.28-2.086-.65-2.826-1.11l1.591-3.6c.698.405 1.479.733 2.344.984a9.406 9.406 0 0 0 2.49.356c.684 0 1.172-.063 1.465-.188.294-.14.44-.342.44-.607 0-.307-.195-.537-.586-.69-.377-.154-1.004-.322-1.884-.503-1.13-.237-2.071-.489-2.825-.754a4.955 4.955 0 0 1-1.967-1.339c-.558-.628-.837-1.472-.837-2.532 0-.921.258-1.758.774-2.512.516-.753 1.284-1.346 2.302-1.779 1.033-.432 2.281-.648 3.746-.648 1.005 0 1.989.111 2.951.334.977.21 1.835.524 2.574.942l-1.485 3.579c-1.438-.726-2.798-1.088-4.082-1.088-1.269 0-1.904.307-1.904.92 0 .294.188.517.565.67.377.14.998.293 1.863.46 1.116.21 2.058.454 2.825.733.767.265 1.43.705 1.988 1.319.572.614.858 1.45.858 2.511 0 .92-.258 1.758-.774 2.511-.516.74-1.291 1.333-2.323 1.78-1.019.432-2.261.648-3.725.648Zm20.472-4.06v3.725h-12.18V5.81h11.908v3.726h-7.053v1.716h6.195v3.558h-6.195v1.925h7.325Z" fill="#fff"/><mask id="a" style="mask-type:alpha" maskUnits="userSpaceOnUse" x="0" y="0" width="41" height="41"><path d="M40.127.28H.363v39.764h39.764V.28Z" fill="#fff"/></mask><g mask="url(#a)"><path d="M35.39 21.817v.675c0 8.83-7.246 15.176-15.144 17.552h-.023C12.3 37.342 5.102 31.09 5.102 22.492v-.675l.582-.327a33.789 33.789 0 0 1 4.823-2.283h19.478a33.786 33.786 0 0 1 4.823 2.283l.583.327Z" fill="#fff"/><path d="M35.39 21.817v.675c0 8.83-7.245 15.176-15.144 17.552V19.207h9.74a33.785 33.785 0 0 1 4.822 2.283l.582.327Z" fill="#fff"/><path d="M31.23 13.172v-.5H9.263v13.299l.337.116c.549.189 1.115.402 1.703.625 2.464.931 5.32 2.011 8.944 2.011 3.69 0 6.84-1.2 9.194-2.098.525-.2 1.011-.385 1.454-.538l.337-.117V13.172Z" fill="#fff" stroke="#171219"/><path d="M30.73 13.172v12.442c-2.492.862-6.08 2.61-10.484 2.61V13.171h10.485Z" fill="#fff"/><path d="M28.401 13.172H12.274l-2.512 1.165 2.33 4.66h6.545l1.61-3.22 1.61 3.22H28.4l2.33-4.66-2.33-1.165Z" fill="#171219"/><path d="m28.4 18.997 2.33-4.66-2.33-1.165h-8.154v2.606l1.61 3.22H28.4Z" fill="#171219"/><path d="M30.708 12.94H9.785L12.302.28h15.89l2.516 12.66Z" fill="#fff"/><path d="M30.707 12.94h-10.46V.28h7.944l2.516 12.66Z" fill="#fff"/><path d="M35.39 9.678v4.66H5.103v-4.66h2.33v2.33H33.06v-2.33h2.33Z" fill="#fff"/><path d="M35.39 9.678v4.66H20.246v-2.33H33.06v-2.33h2.33Z" fill="#fff"/></g><path d="M44.212 28.971v3.442h4.293v.53h-4.293v3.556h-.587v-8.057h5.387v.53h-4.8Zm6.723 1.52h.576v6.008h-.576v-6.008Zm.288-1.462a.475.475 0 0 1-.334-.127.454.454 0 0 1-.138-.334c0-.13.046-.241.138-.334a.455.455 0 0 1 .334-.138c.13 0 .242.046.334.139a.419.419 0 0 1 .138.322c0 .13-.046.242-.138.334a.455.455 0 0 1-.334.138Zm3.611 2.774c.184-.437.472-.771.864-1.002.391-.237.867-.356 1.427-.356v.564l-.138-.012c-.668 0-1.19.211-1.566.633-.376.415-.564.994-.564 1.738V36.5h-.575v-6.008h.553v1.312Zm5.798 4.742c-.484 0-.944-.072-1.382-.218-.437-.146-.779-.33-1.024-.553l.265-.46c.245.207.56.38.943.518.392.138.799.207 1.22.207.607 0 1.052-.1 1.336-.3a.95.95 0 0 0 .437-.828c0-.253-.08-.453-.241-.599a1.405 1.405 0 0 0-.576-.322 9.789 9.789 0 0 0-.955-.219 7.978 7.978 0 0 1-1.151-.276 1.8 1.8 0 0 1-.749-.483c-.207-.223-.31-.53-.31-.921 0-.476.195-.867.587-1.174.399-.315.963-.472 1.692-.472.384 0 .763.053 1.14.16.375.108.682.25.92.427l-.264.46a2.751 2.751 0 0 0-.841-.403 3.427 3.427 0 0 0-.967-.138c-.56 0-.982.104-1.266.31a.966.966 0 0 0-.426.818c0 .269.08.48.242.633.161.146.357.257.587.334.238.07.568.146.99.23.468.085.844.177 1.128.276.291.093.537.246.736.46.2.216.3.511.3.887 0 .5-.208.898-.622 1.197-.414.3-.997.45-1.75.45Zm7.304-.426c-.146.138-.33.246-.553.323a2.213 2.213 0 0 1-.679.103c-.522 0-.925-.142-1.209-.426-.284-.291-.426-.694-.426-1.208v-3.925h-1.105v-.495h1.105v-1.313h.576v1.313h1.91v.495h-1.91v3.867c0 .392.092.69.276.898.192.2.472.3.84.3.376 0 .687-.112.933-.335l.242.403Zm6.023-7.148v3.442h4.293v.53H73.96v3.556h-.587v-8.057h5.386v.53h-4.8Zm7.275 2.832a2.05 2.05 0 0 1 .864-1.002c.391-.237.867-.356 1.427-.356v.564l-.138-.012c-.668 0-1.19.211-1.566.633-.376.415-.564.994-.564 1.738V36.5h-.575v-6.008h.552v1.312Zm9.242 1.83h-5.168c.015.468.134.887.357 1.255.222.36.521.64.897.84.384.2.814.3 1.29.3.391 0 .752-.07 1.082-.208.337-.146.617-.357.84-.633l.334.38c-.261.314-.591.556-.99.725a3.193 3.193 0 0 1-1.278.253c-.598 0-1.132-.13-1.6-.391a2.877 2.877 0 0 1-1.105-1.082c-.26-.46-.391-.986-.391-1.577 0-.583.123-1.105.368-1.565a2.79 2.79 0 0 1 1.036-1.094c.438-.26.929-.391 1.474-.391.544 0 1.031.13 1.461.391.438.253.78.61 1.025 1.07.253.461.38.983.38 1.566l-.012.161Zm-2.854-2.682c-.422 0-.802.096-1.14.288-.338.184-.61.449-.817.794-.2.338-.315.721-.346 1.151h4.605a2.411 2.411 0 0 0-.346-1.15 2.251 2.251 0 0 0-.817-.795 2.265 2.265 0 0 0-1.14-.288Zm10.067 2.682h-5.168c.016.468.135.887.357 1.255.223.36.522.64.898.84.383.2.814.3 1.29.3.39 0 .751-.07 1.081-.208.338-.146.618-.357.84-.633l.334.38c-.26.314-.59.556-.99.725a3.192 3.192 0 0 1-1.277.253c-.6 0-1.132-.13-1.6-.391a2.878 2.878 0 0 1-1.105-1.082c-.261-.46-.392-.986-.392-1.577 0-.583.123-1.105.369-1.565a2.79 2.79 0 0 1 1.036-1.094c.437-.26.928-.391 1.473-.391s1.032.13 1.462.391c.437.253.779.61 1.024 1.07.253.461.38.983.38 1.566l-.011.161Zm-2.854-2.682c-.422 0-.802.096-1.14.288-.337.184-.61.449-.817.794-.2.338-.314.721-.345 1.151h4.604a2.411 2.411 0 0 0-.345-1.15 2.25 2.25 0 0 0-.817-.795 2.265 2.265 0 0 0-1.14-.288Zm13.462 3.28h-4.674l-1.024 2.268h-.633l3.706-8.057h.587l3.707 8.057h-.633l-1.036-2.267Zm-.219-.494-2.118-4.65-2.106 4.65h4.224Zm3.696-5.295h3.188c.837 0 1.577.173 2.222.518a3.768 3.768 0 0 1 1.519 1.438c.361.607.541 1.298.541 2.073 0 .775-.18 1.47-.541 2.083a3.793 3.793 0 0 1-1.519 1.427c-.645.346-1.385.518-2.222.518h-3.188v-8.057Zm3.142 7.528c.745 0 1.401-.146 1.968-.438a3.208 3.208 0 0 0 1.313-1.243c.307-.53.46-1.135.46-1.819 0-.682-.153-1.289-.46-1.818a3.134 3.134 0 0 0-1.313-1.232c-.567-.299-1.223-.449-1.968-.449h-2.555v6.999h2.555Zm12.132.587c-.59 0-1.154-.1-1.692-.3-.529-.207-.944-.471-1.243-.794l.265-.437c.284.3.664.545 1.14.736.483.185.989.277 1.519.277.767 0 1.347-.146 1.738-.437.391-.292.587-.672.587-1.14 0-.36-.104-.648-.311-.864a2.05 2.05 0 0 0-.771-.494 10.565 10.565 0 0 0-1.243-.357 12.471 12.471 0 0 1-1.427-.426 2.352 2.352 0 0 1-.91-.633c-.245-.292-.368-.68-.368-1.163 0-.391.104-.748.311-1.07.207-.33.522-.59.944-.783.429-.192.963-.288 1.599-.288.446 0 .883.066 1.313.196.429.13.802.307 1.116.53l-.219.471a3.698 3.698 0 0 0-1.07-.506 3.953 3.953 0 0 0-1.14-.173c-.744 0-1.308.15-1.692.45a1.41 1.41 0 0 0-.575 1.162c0 .36.104.648.311.863.207.215.464.38.771.495.307.115.725.238 1.255.368.59.146 1.062.288 1.415.426s.653.35.898.633c.254.277.38.653.38 1.128 0 .392-.107.748-.322 1.07-.207.323-.53.58-.967.772-.438.192-.975.288-1.612.288Zm8.074-6.112c.56 0 1.066.13 1.519.391.453.26.806.622 1.059 1.082.261.46.391.986.391 1.577 0 .59-.13 1.12-.391 1.588-.253.46-.606.822-1.059 1.082-.453.254-.959.38-1.519.38-.53 0-1.01-.123-1.439-.368a2.63 2.63 0 0 1-1.002-1.048v3.603h-.575v-8.241h.552v1.416c.238-.46.572-.818 1.002-1.07a2.8 2.8 0 0 1 1.462-.392Zm-.035 5.582a2.42 2.42 0 0 0 1.243-.322 2.26 2.26 0 0 0 .863-.898c.215-.384.323-.82.323-1.312a2.64 2.64 0 0 0-.323-1.312 2.261 2.261 0 0 0-.863-.898 2.418 2.418 0 0 0-1.243-.322c-.46 0-.875.107-1.243.322a2.367 2.367 0 0 0-.863.898 2.71 2.71 0 0 0-.311 1.312c0 .491.103.928.311 1.312.215.384.502.683.863.898.368.215.783.322 1.243.322Zm9.786-5.536-3.085 6.826c-.23.53-.499.905-.806 1.128a1.743 1.743 0 0 1-1.07.333c-.276 0-.537-.046-.783-.138a1.666 1.666 0 0 1-.61-.403l.288-.437c.307.315.679.472 1.117.472.291 0 .54-.08.748-.242.207-.161.399-.437.575-.829l.322-.725-2.705-5.985h.611l2.405 5.375 2.406-5.375h.587Zm6.632-1.52h-2.901v-.53h6.389v.53h-2.901V36.5h-.587v-7.528Zm6.823 7.574c-.568 0-1.082-.13-1.542-.391a2.842 2.842 0 0 1-1.071-1.082 3.182 3.182 0 0 1-.391-1.577c0-.583.13-1.105.391-1.565a2.82 2.82 0 0 1 1.071-1.094c.46-.26.974-.391 1.542-.391.568 0 1.078.13 1.531.391a2.8 2.8 0 0 1 1.082 1.094c.261.46.391.982.391 1.565s-.13 1.109-.391 1.577c-.261.46-.622.821-1.082 1.082-.453.26-.963.391-1.531.391Zm0-.518c.46 0 .871-.107 1.232-.322a2.26 2.26 0 0 0 .863-.898c.215-.384.322-.82.322-1.312 0-.491-.107-.928-.322-1.312a2.261 2.261 0 0 0-.863-.898 2.363 2.363 0 0 0-1.232-.322c-.46 0-.875.107-1.243.322a2.367 2.367 0 0 0-.863.898 2.72 2.72 0 0 0-.311 1.312c0 .491.104.928.311 1.312.215.384.502.683.863.898.368.215.783.322 1.243.322Zm7.483.518c-.567 0-1.082-.13-1.542-.391a2.842 2.842 0 0 1-1.071-1.082 3.182 3.182 0 0 1-.391-1.577c0-.583.13-1.105.391-1.565a2.82 2.82 0 0 1 1.071-1.094c.46-.26.975-.391 1.542-.391.568 0 1.078.13 1.531.391.461.26.821.626 1.082 1.094.261.46.392.982.392 1.565s-.131 1.109-.392 1.577c-.261.46-.621.821-1.082 1.082-.453.26-.963.391-1.531.391Zm0-.518c.461 0 .871-.107 1.232-.322a2.26 2.26 0 0 0 .863-.898c.215-.384.322-.82.322-1.312 0-.491-.107-.928-.322-1.312a2.261 2.261 0 0 0-.863-.898 2.36 2.36 0 0 0-1.232-.322c-.46 0-.875.107-1.243.322-.36.215-.648.514-.863.898a2.72 2.72 0 0 0-.311 1.312c0 .491.104.928.311 1.312.215.384.503.683.863.898.368.215.783.322 1.243.322Zm5.135-8.069h.576V36.5h-.576v-8.54Z" fill="#fff"/></svg>