<svg width="243" height="41" fill="none" xmlns="http://www.w3.org/2000/svg"><path fill-rule="evenodd" clip-rule="evenodd" d="M196.012 23.622c0-.791 0-1.385.197-2.176.198-.593.396-1.385.594-1.978.198-.594.593-1.187.989-1.78.395-.594.791-1.187 1.187-1.583.395-.396.989-.989 1.582-1.385.594-.395 1.187-.79 1.781-.989.593-.197 1.384-.395 2.175-.593.792-.198 1.583-.198 2.374-.198.791 0 1.385 0 2.176.198.396 0 .594.198.989.198.396 0 .594.197.989.395.198.198.594.198.791.396.198.198.594.396.792.396l.198.197.197-1.384h5.143V33.71h-5.34l-.198-1.384-.198.197c-.198.198-.594.396-.791.396-.198.198-.594.198-.792.396-.197.198-.593.198-.989.395-.395.198-.593.198-.989.198-.395 0-.791.198-.989.198h-1.187c-.791 0-1.582 0-2.176-.198-.791-.198-1.384-.395-2.175-.593-.594-.198-1.187-.594-1.781-.99-.593-.395-1.187-.79-1.582-1.384-.396-.396-.989-.99-1.187-1.582-.396-.594-.594-1.187-.989-1.78-.198-.594-.396-1.386-.594-1.979-.197-.593-.197-1.385-.197-1.978Zm-112.555 0c0-.791 0-1.385.198-2.176.197-.593.395-1.385.593-1.978.198-.594.593-1.187.99-1.78.395-.594.79-1.187 1.384-1.583.593-.396.989-.989 1.582-1.385.594-.395 1.187-.79 1.78-.989.594-.197 1.385-.395 2.177-.593.79-.198 1.582-.198 2.373-.198.791 0 1.583 0 2.374.198.791.198 1.385.396 2.176.593.593.198 1.385.594 1.978.99.593.395 1.187.79 1.583 1.384.593.396.989.99 1.384 1.583.396.593.791 1.186.989 1.78.198.593.396 1.385.594 1.978.197.791.197 1.385.197 2.176v.791l-.197 1.187H89.787c.198.396.198.593.395.791.198.198.396.594.594.792l.593.593c.198.198.396.396.791.593.198.198.594.198.792.396.198.198.593.198.791.198h.989c.396 0 .99 0 1.385-.198s.791-.198 1.187-.396c.395-.197.593-.395.989-.79.197-.199.395-.594.593-.792l4.55 3.363c-.198.395-.594.593-.791.791-.396.396-.792.791-1.187.989-.396.396-.989.593-1.385.791-.593.198-.99.396-1.583.594-.593.198-1.186.395-1.78.395-.593 0-1.187.198-1.978.198-.791 0-1.582 0-2.374-.198-.79-.197-1.384-.395-2.176-.593-.593-.198-1.384-.594-1.978-.99-.593-.395-1.187-.79-1.582-1.384-.396-.395-.99-.989-1.385-1.582-.395-.594-.791-1.187-.989-1.78-.198-.594-.396-1.385-.593-1.979-.198-.395-.198-1.187-.198-1.78Zm3.56-14.836.792-1.187h-7.122l-6.33 10.484L68.027 7.6h-7.12l10.285 16.22v9.891h6.133v-9.89l9.692-15.034Zm44.508 20.77 9.099-10.88h-8.703v-5.34h17.407v3.956l-9.099 10.88h9.495v5.34h-18.397v-3.758l.198-.198Zm41.145-15.033L161.592 40.04h-6.527l3.758-7.912-8.11-18.595h6.527l4.748 11.276 4.747-11.276h6.528l-.593.99Zm-64.882 8.901c0-.791 0-1.385.197-2.176.198-.593.396-1.385.594-1.978.198-.593.593-1.187.989-1.78.396-.594.791-1.187 1.385-1.583.593-.395.989-.989 1.582-1.384.594-.396 1.187-.792 1.78-.99.594-.197 1.385-.395 2.176-.593.792-.198 1.583-.198 2.374-.198.791 0 1.583 0 2.374.198.791.198 1.384.396 2.176.594.593.197 1.384.593 1.978.989.593.395 1.187.79 1.582 1.384.594.396.989.99 1.385 1.583s.791 1.187.989 1.78c.198.593.396 1.385.594 1.978.197.791.197 1.385.197 2.176v.791l-.197 1.187h-15.825c.197.396.197.594.395.791.198.198.396.594.594.792l.593.593c.198.198.396.396.791.594.198.197.594.197.792.395.197.198.593.198.791.198h.791c.396 0 .989 0 1.385-.198.395-.198.791-.198 1.187-.395.395-.198.593-.396.989-.792.197-.197.395-.593.593-.79l4.55 3.362c-.198.395-.594.593-.791.791-.396.396-.792.791-1.187.99-.396.395-.989.593-1.385.79-.396.198-.989.396-1.583.594-.593.198-1.186.396-1.78.396-.593 0-1.187.197-1.978.197-.791 0-1.582 0-2.374-.197-.791-.198-1.384-.396-2.176-.594-.593-.198-1.384-.593-1.978-.989-.593-.396-1.187-.791-1.582-1.385-.396-.395-.989-.989-1.385-1.582-.396-.594-.791-1.187-.989-1.78-.198-.594-.396-1.385-.593-1.979v-1.78Zm11.077-5.539c-.593 0-1.187 0-1.78.198-.198.198-.594.198-.792.396-.197.198-.395.198-.593.395l-.593.594-.594.593c-.198.198-.198.396-.395.594h9.297c0-.198-.198-.396-.396-.594-.198-.198-.396-.395-.396-.593l-.593-.594c-.198-.197-.396-.395-.593-.395-.198-.198-.396-.198-.792-.396-.593 0-1.187-.198-1.78-.198Zm-24.33 0c-.594 0-1.188 0-1.781.198-.198 0-.594.198-.791.396-.198.198-.396.198-.594.395l-.593.594-.594.593c-.197.198-.197.396-.395.594h9.297c0-.198-.198-.396-.396-.594-.198-.198-.395-.395-.395-.593l-.594-.594c-.198-.197-.395-.395-.593-.395-.198-.198-.396-.198-.791-.396-.594 0-1.187-.198-1.78-.198Zm147.764-3.362L231.222 40.04h-6.528l3.759-7.912-8.111-18.595h6.528l4.748 11.276 4.747-11.276h6.528l-.594.99ZM181.176 25.6v8.11h-6.132V7.401h11.275c.593 0 1.384 0 1.978.198.593.198 1.187.198 1.78.594.594.197 1.187.593 1.583.79.593.396.989.594 1.384.99.396.395.792.791 1.187 1.385.396.395.594.989.791 1.582l.594 1.78c.198.594.198 1.187.198 1.78 0 .594 0 1.188-.198 1.979-.198.593-.198 1.187-.594 1.78-.197.594-.593.99-.791 1.583-.395.395-.791.989-1.187 1.384-.395.396-.791.791-1.384.99-.594.395-.989.593-1.583.79l-1.78.594c-.594.198-1.187.198-1.978.198h-5.143V25.6Zm4.945-5.539c.396 0 .989 0 1.385-.198.197 0 .395-.197.593-.395.198-.198.396-.198.396-.396.198-.197.198-.395.395-.593.198-.198.198-.396.396-.594 0-.197.198-.395.198-.593V15.709c0-.197-.198-.395-.198-.79 0-.199-.198-.396-.396-.594-.197-.198-.197-.396-.395-.594-.198-.197-.396-.395-.594-.395-.198-.198-.395-.198-.593-.396-.198 0-.396-.198-.594-.198h-5.538v7.32h4.945Zm15.825 3.363c0 .396 0 .791.198 1.187 0 .396.198.791.395.989.198.396.396.593.396.99.198.197.396.593.593.79.198.198.396.396.792.594.197.198.593.395.989.395.395.198.593.198.989.198h1.978c.395 0 .593-.198.989-.198.396-.197.593-.197.791-.395.198-.198.594-.396.791-.594.198-.197.396-.395.594-.79a1.51 1.51 0 0 0 .395-.99c.198-.396.198-.593.396-.989 0-.396.198-.791.198-1.187 0-.395 0-.791-.198-1.187a1.51 1.51 0 0 0-.396-.989c-.197-.395-.197-.593-.395-.989-.198-.198-.396-.593-.594-.791-.197-.198-.593-.396-.791-.594a1.51 1.51 0 0 0-.989-.395c-.396-.198-.593-.198-.989-.198H206.1c-.396 0-.593.198-.989.198-.396.198-.594.198-.791.395-.198.198-.594.396-.792.594-.197.198-.395.593-.593.791a1.51 1.51 0 0 0-.396.99c-.197.395-.197.593-.395.988-.198.594-.198.792-.198 1.187ZM45.078 2.06c-1.187-.593-2.374-.988-3.759-1.384C40.33.478 38.945.478 37.76.28H16.987l5.143 7.121h13.056c2.77 0 5.934 0 8.11 1.979.594.593 1.187 1.384 1.385 2.175.395.792.593 1.583.593 2.572 0 .99-.197 1.78-.593 2.572-.396.79-.791 1.582-1.385 2.175-.791.792-1.78 1.385-2.967 1.583-1.385.396-2.967.593-4.352.593l-3.758 6.924c2.571.198 5.34.198 8.308-.396 2.967-.593 5.736-1.582 7.912-3.758 1.187-1.187 2.374-2.77 2.968-4.55.593-1.582.989-3.363.989-5.34 0-1.781-.396-3.561-.99-5.342-.79-1.78-1.78-3.165-2.967-4.55-1.187-.593-2.176-1.384-3.362-1.977ZM8.876.28l14.44 20.77-4.154 6.726L.172.28h8.704Z" fill="#fff"/><path fill-rule="evenodd" clip-rule="evenodd" d="M40.131 9.775 26.285 33.908h-8.308L31.823 9.775l8.11.198.198-.198Z" fill="#fff"/></svg>