<svg width="126" height="41" viewBox="0 0 126 41" fill="none" xmlns="http://www.w3.org/2000/svg">
<path d="M62.2777 16.4683L72.7855 9.65234L65.9698 20.1603L72.7855 30.6683L62.2777 23.8524L51.7695 30.6683L58.5856 20.1603L51.7695 9.65234L62.2777 16.4683Z" fill="white"/>
<path d="M30.182 30.1001H18.822L13 40.0401H24.502L30.182 30.1001Z" fill="white"/>
<path d="M13.002 20.1603L24.504 0.280273H13.002L1.49998 20.1603C-1.05602 24.5623 2.06798 30.1003 7.17998 30.1003H18.682L24.362 20.1603H13.002Z" fill="white"/>
<path d="M36.0059 20.1602L41.6857 10.2202H30.1839L24.5039 20.1602C21.9479 24.5622 25.0719 30.1002 30.1839 30.1002C37.2839 30.1002 43.8161 26.2662 47.3658 20.1602H36.0059Z" fill="white"/>
<path d="M107.998 30.1001H96.4965L90.8164 40.0401H102.319L107.998 30.1001Z" fill="white"/>
<path d="M90.8183 20.1603L102.32 0.280273H90.8183L79.3165 20.1603C76.7603 24.5623 79.8843 30.1003 84.9962 30.1003H96.4984L102.178 20.1603H90.8183Z" fill="white"/>
<path d="M113.822 19.1602L119.502 9.22021H108L102.32 19.1602C99.7642 23.5622 102.888 29.1002 108 29.1002C115.1 29.1002 121.632 25.2662 125.182 19.1602H113.822Z" fill="white"/>
</svg>
