<svg width="88" height="41" fill="none" xmlns="http://www.w3.org/2000/svg"><path d="M20.478 40.04c10.98 0 19.88-8.9 19.88-19.88 0-10.98-8.9-19.88-19.88-19.88C9.498.28.598 9.18.598 20.16c0 10.98 8.9 19.88 19.88 19.88Z" fill="#fff"/><mask id="a" maskUnits="userSpaceOnUse" x="12.555" y="10.402" width="75" height="18" fill="#000"><path fill="#fff" d="M12.555 10.402h75v18h-75z"/><path d="M23.073 19.188c1.235.712 1.853 1.786 1.853 3.223 0 1.194-.423 2.174-1.269 2.94-.846.765-1.886 1.148-3.121 1.148h-5.981V12.402h5.558c1.195 0 2.208.376 3.04 1.128.833.751 1.25 1.698 1.25 2.84 0 1.167-.444 2.107-1.33 2.818ZM20.113 15h-2.78V18.1h2.78c.43 0 .785-.148 1.067-.443.296-.296.443-.665.443-1.108 0-.443-.14-.812-.423-1.107-.282-.296-.644-.443-1.087-.443Zm-2.78 8.9h3.203c.47 0 .859-.154 1.168-.462.308-.323.463-.725.463-1.209 0-.47-.155-.859-.463-1.168-.31-.322-.698-.483-1.168-.483h-3.202v3.323Zm11.892-7.47v1.731c.228-.63.617-1.107 1.168-1.43.55-.335 1.181-.503 1.893-.503v2.9c-.792-.107-1.504.054-2.135.483-.617.416-.926 1.108-.926 2.075v4.813h-2.598v-10.07h2.598Zm12.785 8.82c-1.02 1.02-2.282 1.53-3.786 1.53-1.503 0-2.765-.51-3.786-1.53-1.02-1.02-1.53-2.282-1.53-3.786 0-1.49.51-2.745 1.53-3.766 1.034-1.034 2.296-1.55 3.786-1.55 1.49 0 2.753.516 3.786 1.55 1.034 1.034 1.55 2.29 1.55 3.766 0 1.49-.516 2.752-1.55 3.786Zm-5.74-1.792c.524.523 1.176.785 1.954.785.779 0 1.43-.262 1.954-.785.523-.524.785-1.188.785-1.994 0-.805-.262-1.47-.785-1.994-.524-.523-1.175-.785-1.954-.785-.778 0-1.43.262-1.953.785-.51.537-.765 1.202-.765 1.994s.255 1.457.765 1.994Zm13.911 3.323c-1.517 0-2.785-.51-3.806-1.531-1.007-1.02-1.51-2.282-1.51-3.786s.503-2.766 1.51-3.786c1.02-1.02 2.29-1.53 3.806-1.53.98 0 1.873.235 2.679.704.805.47 1.416 1.101 1.833 1.893l-2.236 1.31a2.264 2.264 0 0 0-.926-.987 2.61 2.61 0 0 0-1.37-.363c-.778 0-1.423.262-1.933.786-.51.51-.765 1.168-.765 1.973 0 .779.255 1.437.765 1.974.51.51 1.155.765 1.933.765.524 0 .987-.114 1.39-.343.416-.241.725-.57.926-.986l2.255 1.289a4.89 4.89 0 0 1-1.892 1.913 5.182 5.182 0 0 1-2.659.704Zm13.42-9.163V16.43H66.2v10.069h-2.597V25.31c-.78.98-1.873 1.47-3.283 1.47-1.342 0-2.497-.51-3.464-1.53-.953-1.034-1.43-2.296-1.43-3.786 0-1.477.477-2.732 1.43-3.766.967-1.034 2.122-1.55 3.464-1.55 1.41 0 2.504.49 3.283 1.47Zm-4.792 5.9c.523.524 1.188.785 1.993.785.806 0 1.47-.261 1.994-.785.537-.537.806-1.222.806-2.054 0-.832-.269-1.51-.806-2.034-.523-.537-1.188-.805-1.994-.805-.805 0-1.47.268-1.993.805-.524.524-.786 1.202-.786 2.034 0 .832.262 1.517.786 2.054Zm12.344-7.088v1.731c.228-.63.618-1.107 1.168-1.43.55-.335 1.182-.503 1.893-.503v2.9c-.792-.107-1.503.054-2.134.483-.618.416-.927 1.108-.927 2.075v4.813h-2.598v-10.07h2.598Zm11.839 1.188v-5.216h2.598v14.097h-2.598V25.31c-.765.98-1.853 1.47-3.262 1.47-1.356 0-2.517-.51-3.484-1.53-.953-1.034-1.43-2.296-1.43-3.786 0-1.477.477-2.732 1.43-3.766.967-1.034 2.128-1.55 3.484-1.55 1.41 0 2.497.49 3.262 1.47Zm-4.793 5.9c.55.524 1.222.785 2.014.785.806 0 1.47-.261 1.994-.785.523-.537.785-1.222.785-2.054 0-.832-.262-1.51-.785-2.034-.524-.537-1.188-.805-1.994-.805s-1.477.268-2.014.805c-.523.524-.785 1.202-.785 2.034 0 .832.261 1.517.785 2.054Z"/></mask><path d="M23.073 19.188c1.235.712 1.853 1.786 1.853 3.223 0 1.194-.423 2.174-1.269 2.94-.846.765-1.886 1.148-3.121 1.148h-5.981V12.402h5.558c1.195 0 2.208.376 3.04 1.128.833.751 1.25 1.698 1.25 2.84 0 1.167-.444 2.107-1.33 2.818ZM20.113 15h-2.78V18.1h2.78c.43 0 .785-.148 1.067-.443.296-.296.443-.665.443-1.108 0-.443-.14-.812-.423-1.107-.282-.296-.644-.443-1.087-.443Zm-2.78 8.9h3.203c.47 0 .859-.154 1.168-.462.308-.323.463-.725.463-1.209 0-.47-.155-.859-.463-1.168-.31-.322-.698-.483-1.168-.483h-3.202v3.323Zm11.892-7.47v1.731c.228-.63.617-1.107 1.168-1.43.55-.335 1.181-.503 1.893-.503v2.9c-.792-.107-1.504.054-2.135.483-.617.416-.926 1.108-.926 2.075v4.813h-2.598v-10.07h2.598Zm12.785 8.82c-1.02 1.02-2.282 1.53-3.786 1.53-1.503 0-2.765-.51-3.786-1.53-1.02-1.02-1.53-2.282-1.53-3.786 0-1.49.51-2.745 1.53-3.766 1.034-1.034 2.296-1.55 3.786-1.55 1.49 0 2.753.516 3.786 1.55 1.034 1.034 1.55 2.29 1.55 3.766 0 1.49-.516 2.752-1.55 3.786Zm-5.74-1.792c.524.523 1.176.785 1.954.785.779 0 1.43-.262 1.954-.785.523-.524.785-1.188.785-1.994 0-.805-.262-1.47-.785-1.994-.524-.523-1.175-.785-1.954-.785-.778 0-1.43.262-1.953.785-.51.537-.765 1.202-.765 1.994s.255 1.457.765 1.994Zm13.911 3.323c-1.517 0-2.785-.51-3.806-1.531-1.007-1.02-1.51-2.282-1.51-3.786s.503-2.766 1.51-3.786c1.02-1.02 2.29-1.53 3.806-1.53.98 0 1.873.235 2.679.704.805.47 1.416 1.101 1.833 1.893l-2.236 1.31a2.264 2.264 0 0 0-.926-.987 2.61 2.61 0 0 0-1.37-.363c-.778 0-1.423.262-1.933.786-.51.51-.765 1.168-.765 1.973 0 .779.255 1.437.765 1.974.51.51 1.155.765 1.933.765.524 0 .987-.114 1.39-.343.416-.241.725-.57.926-.986l2.255 1.289a4.89 4.89 0 0 1-1.892 1.913 5.182 5.182 0 0 1-2.659.704Zm13.42-9.163V16.43H66.2v10.069h-2.597V25.31c-.78.98-1.873 1.47-3.283 1.47-1.342 0-2.497-.51-3.464-1.53-.953-1.034-1.43-2.296-1.43-3.786 0-1.477.477-2.732 1.43-3.766.967-1.034 2.122-1.55 3.464-1.55 1.41 0 2.504.49 3.283 1.47Zm-4.792 5.9c.523.524 1.188.785 1.993.785.806 0 1.47-.261 1.994-.785.537-.537.806-1.222.806-2.054 0-.832-.269-1.51-.806-2.034-.523-.537-1.188-.805-1.994-.805-.805 0-1.47.268-1.993.805-.524.524-.786 1.202-.786 2.034 0 .832.262 1.517.786 2.054Zm12.344-7.088v1.731c.228-.63.618-1.107 1.168-1.43.55-.335 1.182-.503 1.893-.503v2.9c-.792-.107-1.503.054-2.134.483-.618.416-.927 1.108-.927 2.075v4.813h-2.598v-10.07h2.598Zm11.839 1.188v-5.216h2.598v14.097h-2.598V25.31c-.765.98-1.853 1.47-3.262 1.47-1.356 0-2.517-.51-3.484-1.53-.953-1.034-1.43-2.296-1.43-3.786 0-1.477.477-2.732 1.43-3.766.967-1.034 2.128-1.55 3.484-1.55 1.41 0 2.497.49 3.262 1.47Zm-4.793 5.9c.55.524 1.222.785 2.014.785.806 0 1.47-.261 1.994-.785.523-.537.785-1.222.785-2.054 0-.832-.262-1.51-.785-2.034-.524-.537-1.188-.805-1.994-.805s-1.477.268-2.014.805c-.523.524-.785 1.202-.785 2.034 0 .832.261 1.517.785 2.054Z" fill="#fff"/><path d="M23.073 19.188c1.235.712 1.853 1.786 1.853 3.223 0 1.194-.423 2.174-1.269 2.94-.846.765-1.886 1.148-3.121 1.148h-5.981V12.402h5.558c1.195 0 2.208.376 3.04 1.128.833.751 1.25 1.698 1.25 2.84 0 1.167-.444 2.107-1.33 2.818ZM20.113 15h-2.78V18.1h2.78c.43 0 .785-.148 1.067-.443.296-.296.443-.665.443-1.108 0-.443-.14-.812-.423-1.107-.282-.296-.644-.443-1.087-.443Zm-2.78 8.9h3.203c.47 0 .859-.154 1.168-.462.308-.323.463-.725.463-1.209 0-.47-.155-.859-.463-1.168-.31-.322-.698-.483-1.168-.483h-3.202v3.323Zm11.892-7.47v1.731c.228-.63.617-1.107 1.168-1.43.55-.335 1.181-.503 1.893-.503v2.9c-.792-.107-1.504.054-2.135.483-.617.416-.926 1.108-.926 2.075v4.813h-2.598v-10.07h2.598Zm12.785 8.82c-1.02 1.02-2.282 1.53-3.786 1.53-1.503 0-2.765-.51-3.786-1.53-1.02-1.02-1.53-2.282-1.53-3.786 0-1.49.51-2.745 1.53-3.766 1.034-1.034 2.296-1.55 3.786-1.55 1.49 0 2.753.516 3.786 1.55 1.034 1.034 1.55 2.29 1.55 3.766 0 1.49-.516 2.752-1.55 3.786Zm-5.74-1.792c.524.523 1.176.785 1.954.785.779 0 1.43-.262 1.954-.785.523-.524.785-1.188.785-1.994 0-.805-.262-1.47-.785-1.994-.524-.523-1.175-.785-1.954-.785-.778 0-1.43.262-1.953.785-.51.537-.765 1.202-.765 1.994s.255 1.457.765 1.994Zm13.911 3.323c-1.517 0-2.785-.51-3.806-1.531-1.007-1.02-1.51-2.282-1.51-3.786s.503-2.766 1.51-3.786c1.02-1.02 2.29-1.53 3.806-1.53.98 0 1.873.235 2.679.704.805.47 1.416 1.101 1.833 1.893l-2.236 1.31a2.264 2.264 0 0 0-.926-.987 2.61 2.61 0 0 0-1.37-.363c-.778 0-1.423.262-1.933.786-.51.51-.765 1.168-.765 1.973 0 .779.255 1.437.765 1.974.51.51 1.155.765 1.933.765.524 0 .987-.114 1.39-.343.416-.241.725-.57.926-.986l2.255 1.289a4.89 4.89 0 0 1-1.892 1.913 5.182 5.182 0 0 1-2.659.704Zm13.42-9.163V16.43H66.2v10.069h-2.597V25.31c-.78.98-1.873 1.47-3.283 1.47-1.342 0-2.497-.51-3.464-1.53-.953-1.034-1.43-2.296-1.43-3.786 0-1.477.477-2.732 1.43-3.766.967-1.034 2.122-1.55 3.464-1.55 1.41 0 2.504.49 3.283 1.47Zm-4.792 5.9c.523.524 1.188.785 1.993.785.806 0 1.47-.261 1.994-.785.537-.537.806-1.222.806-2.054 0-.832-.269-1.51-.806-2.034-.523-.537-1.188-.805-1.994-.805-.805 0-1.47.268-1.993.805-.524.524-.786 1.202-.786 2.034 0 .832.262 1.517.786 2.054Zm12.344-7.088v1.731c.228-.63.618-1.107 1.168-1.43.55-.335 1.182-.503 1.893-.503v2.9c-.792-.107-1.503.054-2.134.483-.618.416-.927 1.108-.927 2.075v4.813h-2.598v-10.07h2.598Zm11.839 1.188v-5.216h2.598v14.097h-2.598V25.31c-.765.98-1.853 1.47-3.262 1.47-1.356 0-2.517-.51-3.484-1.53-.953-1.034-1.43-2.296-1.43-3.786 0-1.477.477-2.732 1.43-3.766.967-1.034 2.128-1.55 3.484-1.55 1.41 0 2.497.49 3.262 1.47Zm-4.793 5.9c.55.524 1.222.785 2.014.785.806 0 1.47-.261 1.994-.785.523-.537.785-1.222.785-2.054 0-.832-.262-1.51-.785-2.034-.524-.537-1.188-.805-1.994-.805s-1.477.268-2.014.805c-.523.524-.785 1.202-.785 2.034 0 .832.261 1.517.785 2.054Z" stroke="#171219" stroke-width="3" mask="url(#a)"/></svg>