<svg width="262" height="41" viewBox="0 0 262 41" fill="none" xmlns="http://www.w3.org/2000/svg">
<path fill-rule="evenodd" clip-rule="evenodd" d="M255.907 36.8621H261.597V4.74268H255.907V36.8621ZM246.382 36.8621H252.072V4.74268H246.382V36.8621ZM226.405 30.328C227.552 31.4875 229.008 32.0663 230.772 32.0663C232.537 32.0663 234.001 31.4875 235.163 30.328C236.324 29.1692 236.905 27.6811 236.905 25.8629C236.905 24.0438 236.324 22.5557 235.163 21.3961C234.001 20.238 232.537 19.6586 230.772 19.6586C229.008 19.6586 227.552 20.238 226.405 21.3961C225.257 22.5557 224.684 24.0438 224.684 25.8629C224.684 27.6811 225.257 29.1692 226.405 30.328ZM236.905 14.8628H242.597V36.8621H236.905V34.2667C235.198 36.4082 232.801 37.4775 229.713 37.4775C226.773 37.4775 224.249 36.356 222.148 34.1126C220.044 31.8682 218.992 29.1178 218.992 25.8629C218.992 22.6063 220.044 19.8559 222.148 17.6123C224.249 15.3688 226.773 14.2467 229.713 14.2467C232.801 14.2467 235.198 15.3182 236.905 17.4584V14.8628ZM208.629 37.4775C205.305 37.4775 202.534 36.3634 200.314 34.1339C198.092 31.9056 196.981 29.1479 196.981 25.8629C196.981 22.5771 198.092 19.8201 200.314 17.5903C202.534 15.3614 205.305 14.2467 208.629 14.2467C210.775 14.2467 212.733 14.7601 214.497 15.7861C216.262 16.8137 217.601 18.1925 218.511 19.9228L213.614 22.7816C213.174 21.8737 212.505 21.155 211.607 20.6261C210.71 20.0981 209.704 19.8347 208.585 19.8347C206.88 19.8347 205.467 20.3994 204.35 21.5282C203.233 22.6577 202.673 24.1018 202.673 25.8629C202.673 27.593 203.233 29.0232 204.35 30.152C205.467 31.2815 206.88 31.8464 208.585 31.8464C209.732 31.8464 210.754 31.5896 211.652 31.0761C212.549 30.5634 213.217 29.852 213.66 28.9425L218.6 31.7583C217.629 33.4893 216.262 34.8754 214.497 35.916C212.733 36.957 210.775 37.4775 208.629 37.4775ZM195.669 20.3181H190.682V29.4707C190.682 30.2335 190.873 30.7901 191.257 31.1422C191.637 31.4943 192.197 31.6923 192.932 31.7354C193.667 31.7803 194.579 31.7729 195.669 31.7142V36.8621C191.755 37.3017 188.999 36.9348 187.396 35.7619C185.793 34.5894 184.991 32.4917 184.991 29.4707V20.3181H181.153V14.8628H184.991V10.4187L190.682 8.70254V14.8628H195.669V20.3181ZM163.682 23.7938H174.932C174.609 22.2983 173.94 21.1842 172.926 20.4508C171.91 19.718 170.757 19.3506 169.462 19.3506C167.933 19.3506 166.668 19.7394 165.669 20.5169C164.668 21.2935 164.005 22.3863 163.682 23.7938ZM163.771 28.1937C164.535 30.9515 166.609 32.3304 169.991 32.3304C172.168 32.3304 173.815 31.5976 174.932 30.13L179.52 32.7705C177.344 35.9095 174.138 37.4775 169.904 37.4775C166.256 37.4775 163.329 36.3773 161.123 34.178C158.917 31.9776 157.814 29.2059 157.814 25.8629C157.814 22.5476 158.902 19.7833 161.08 17.5683C163.256 15.3533 166.049 14.2467 169.462 14.2467C172.698 14.2467 175.365 15.3614 177.469 17.5903C179.571 19.8201 180.624 22.5771 180.624 25.8629C180.624 26.5963 180.549 27.373 180.403 28.1937H163.771ZM158.861 36.8621H152.243L144.214 26.8736V36.8621H138.522V6.06214H144.214V24.5426L151.802 14.8628H158.596L149.728 25.7301L158.861 36.8621ZM130.242 18.6466C130.771 17.2383 131.645 16.1822 132.866 15.478C134.087 14.7739 135.447 14.4227 136.947 14.4227V20.7588C135.212 20.5535 133.661 20.9055 132.292 21.8143C130.926 22.7238 130.242 24.2346 130.242 26.3462V36.8621H124.551V14.8628H130.242V18.6466ZM104.561 30.328C105.708 31.4875 107.164 32.0663 108.928 32.0663C110.693 32.0663 112.156 31.4875 113.318 30.328C114.48 29.1692 115.061 27.6811 115.061 25.8629C115.061 24.0438 114.48 22.5557 113.318 21.3961C112.156 20.238 110.693 19.6586 108.928 19.6586C107.164 19.6586 105.708 20.238 104.561 21.3961C103.414 22.5557 102.839 24.0438 102.839 25.8629C102.839 27.6811 103.414 29.1692 104.561 30.328ZM115.061 14.8628H120.753V36.8621H115.061V34.2667C113.355 36.4082 110.957 37.4775 107.87 37.4775C104.928 37.4775 102.406 36.356 100.303 34.1126C98.2001 31.8682 97.1486 29.1178 97.1486 25.8629C97.1486 22.6063 98.2001 19.8559 100.303 17.6123C102.406 15.3688 104.928 14.2467 107.87 14.2467C110.957 14.2467 113.355 15.3182 115.061 17.4584V14.8628ZM86.4286 14.2467C88.9576 14.2467 90.9795 15.0682 92.4945 16.7102C94.0094 18.3531 94.7667 20.5535 94.7667 23.3105V36.8621H89.0755V23.7065C89.0755 22.3863 88.7513 21.3603 88.105 20.6261C87.4574 19.8933 86.5452 19.5267 85.3701 19.5267C84.0754 19.5267 83.0683 19.952 82.3472 20.8021C81.6265 21.6529 81.267 22.8851 81.267 24.4979V36.8621H75.5754V23.7065C75.5754 22.3863 75.2516 21.3603 74.6053 20.6261C73.9572 19.8933 73.0455 19.5267 71.8696 19.5267C70.604 19.5267 69.5973 19.952 68.8475 20.8021C68.0972 21.6529 67.7229 22.8851 67.7229 24.4979V36.8621H62.0312V14.8628H67.7229V17.1942C69.0459 15.2301 71.0901 14.2467 73.8541 14.2467C76.5607 14.2467 78.5609 15.3021 79.8552 17.4144C81.3258 15.3021 83.5166 14.2467 86.4286 14.2467Z" fill="white"/>
<path fill-rule="evenodd" clip-rule="evenodd" d="M0.300781 25.7717C0.300781 29.7074 1.90462 33.2727 4.49531 35.8575C7.08676 38.4413 10.6599 40.0403 14.6059 40.0403C18.5474 40.0403 22.1214 38.4413 24.7128 35.8575L20.7366 31.8858C19.1629 33.4561 16.9936 34.4264 14.6059 34.4264C12.2137 34.4264 10.0444 33.4561 8.47585 31.8858C6.90219 30.3212 5.92928 28.1577 5.92928 25.7717C5.92928 23.3858 6.90219 21.2229 8.47585 19.6586L4.49531 15.687C1.90462 18.2716 0.300781 21.8369 0.300781 25.7717Z" fill="white"/>
<path fill-rule="evenodd" clip-rule="evenodd" d="M14.6067 0.280273V5.89476C20.1015 5.89476 25.0857 8.12293 28.6941 11.7221C32.3033 15.3217 34.5359 20.2915 34.5359 25.7717H40.1651C40.1651 18.7476 37.2957 12.3703 32.6695 7.75623C28.0433 3.14216 21.6508 0.280273 14.6067 0.280273ZM14.6067 17.1179C16.9945 17.1179 19.1638 18.0883 20.7374 19.6586C22.306 21.223 23.2788 23.3859 23.2788 25.7717H28.9082C28.9082 21.8369 27.3043 18.2717 24.7135 15.6869C22.1223 13.1031 18.5483 11.5034 14.6067 11.5034V17.1179ZM12.4484 23.6234C11.9013 24.1728 11.5586 24.9356 11.5586 25.7717C11.5586 26.6086 11.9013 27.3707 12.4484 27.9208C13.0044 28.4702 13.7633 28.8119 14.6067 28.8119C15.4465 28.8119 16.2098 28.4702 16.7613 27.9208C17.3121 27.3707 17.6496 26.6086 17.6496 25.7717C17.6496 24.9356 17.3121 24.1728 16.7613 23.6234C16.2098 23.0742 15.4465 22.7323 14.6067 22.7323C13.7633 22.7323 13.0044 23.0742 12.4484 23.6234Z" fill="white"/>
</svg>
