<svg width="91" height="36" viewBox="0 0 91 36" fill="none" xmlns="http://www.w3.org/2000/svg">
<path d="M90.3646 15.1919H75.4531V17.6701H81.6482V27.6181H84.1695V17.6701H90.3646V15.1919Z" fill="white"/>
<path d="M72.9661 27.6181V25.3814H60.8271V22.6182H71.8613V20.2572H60.8271V17.4286H72.9661V15.1919H58.0547V27.6181H72.9661Z" fill="white"/>
<path fill-rule="evenodd" clip-rule="evenodd" d="M31.96 4.00813H4.62239V23.89H31.96V4.00813ZM4.62239 0.280273C2.56356 0.280273 0.894531 1.9493 0.894531 4.00813V23.89C0.894531 25.9489 2.56356 27.6179 4.62239 27.6179H31.96C34.0189 27.6179 35.6879 25.9489 35.6879 23.89V4.00813C35.6879 1.9493 34.0189 0.280273 31.96 0.280273H4.62239Z" fill="white"/>
<path fill-rule="evenodd" clip-rule="evenodd" d="M15.8062 11.1875L4.62301 4.04531L4.62218 24.1664L15.8053 31.3086L15.8062 11.1875ZM6.6175 0.869671C4.13563 -0.71539 0.895488 1.08271 0.895364 4.04515L0.894531 24.1663C0.894482 25.4544 1.54852 26.6529 2.62769 27.342L13.8108 34.4842C16.2927 36.0693 19.5328 34.2711 19.533 31.3087L19.5338 11.1876C19.5338 9.89951 18.8798 8.70101 17.8006 8.01185L6.6175 0.869671Z" fill="white"/>
<path d="M55.5716 12.7065V10.2212H43.3713V7.73599H54.216V5.25075H43.3713V2.76551H55.5716V0.280273H40.6602V12.7065H55.5716Z" fill="white"/>
<path d="M69.1475 0.280273H58.0547V12.7065H60.5183L60.5495 8.97861H69.1475C71.3424 8.97861 72.9661 6.84162 72.9661 4.7537C72.9661 2.54225 71.6344 0.280273 69.1475 0.280273ZM70.4809 4.62944C70.4809 5.55388 70.1808 6.49337 69.1475 6.49337H60.5495V2.76551H69.1475C70.1861 2.76551 70.4809 3.69612 70.4809 4.62944Z" fill="white"/>
<path d="M90.3646 0.280273H87.8716V9.68864L78.2132 0.280273H75.4531V12.7065H77.9461V3.59984L87.284 12.7065H90.3646V0.280273Z" fill="white"/>
<path d="M55.5716 15.1919H53.0786V24.6003L43.4203 15.1919H40.6602V27.6181H43.1531V18.5114L52.491 27.6181H55.5716V15.1919Z" fill="white"/>
</svg>
