<svg width="415" height="304" viewBox="0 0 415 304" fill="none" xmlns="http://www.w3.org/2000/svg" xmlns:xlink="http://www.w3.org/1999/xlink">
<g filter="url(#filter0_f_906_2147)">
<ellipse cx="131.418" cy="224.124" rx="38.6281" ry="42.29" transform="rotate(-15.5387 131.418 224.124)" fill="white" fill-opacity="0.6"/>
</g>
<path d="M86.1936 300.825H83.5935L82.8582 299.125H78.2994L77.5641 300.825H74.9582L78.9759 292.001H82.1818L86.1936 300.825ZM80.5759 293.86L79.1465 297.166H82.0112L80.5759 293.86ZM92.4469 292.001C93.1802 292.001 93.8155 292.127 94.3528 292.378C94.89 292.629 95.3018 292.984 95.5881 293.442C95.8743 293.901 96.0175 294.435 96.0175 295.042C96.0175 295.65 95.8743 296.184 95.5881 296.642C95.3018 297.101 94.89 297.456 94.3528 297.707C93.8155 297.958 93.1802 298.084 92.4469 298.084H89.9351V300.825H87.4939V292.001H92.4469ZM92.3057 296.131C92.6979 296.131 93.0037 296.035 93.2234 295.842C93.443 295.65 93.5528 295.384 93.5528 295.042C93.5528 294.701 93.443 294.435 93.2234 294.242C93.0037 294.05 92.6979 293.954 92.3057 293.954H89.9351V296.131H92.3057ZM102.499 292.001C103.233 292.001 103.868 292.127 104.405 292.378C104.942 292.629 105.354 292.984 105.64 293.442C105.927 293.901 106.07 294.435 106.07 295.042C106.07 295.65 105.927 296.184 105.64 296.642C105.354 297.101 104.942 297.456 104.405 297.707C103.868 297.958 103.233 298.084 102.499 298.084H99.9875V300.825H97.5463V292.001H102.499ZM102.358 296.131C102.75 296.131 103.056 296.035 103.276 295.842C103.495 295.65 103.605 295.384 103.605 295.042C103.605 294.701 103.495 294.435 103.276 294.242C103.056 294.05 102.75 293.954 102.358 293.954H99.9875V296.131H102.358ZM110.04 292.001V298.654H115.546V300.825H107.599V292.001H110.04ZM119.654 297.301L119.407 298.848H124.995V300.825H116.789L117.46 296.413L116.789 292.001H124.936V293.978H119.407L119.654 295.525H124.595V297.301H119.654ZM140.596 298.542L142.443 292.001H145.02L142.337 300.825H139.202L137.143 294.76L135.079 300.825H131.943L129.261 292.001H131.849L133.69 298.537L135.855 292.001H138.431L140.596 298.542ZM156.112 300.825H153.512L152.777 299.125H148.218L147.483 300.825H144.877L148.895 292.001H152.101L156.112 300.825ZM150.495 293.86L149.065 297.166H151.93L150.495 293.86ZM155.405 292.001H164.576V294.172H161.211V300.825H158.77V294.172H155.405V292.001ZM175.536 297.131C175.45 297.903 175.183 298.584 174.736 299.172C174.289 299.756 173.699 300.211 172.966 300.537C172.232 300.858 171.403 301.019 170.477 301.019C169.462 301.019 168.566 300.827 167.789 300.442C167.013 300.058 166.411 299.519 165.983 298.825C165.56 298.127 165.348 297.323 165.348 296.413C165.348 295.503 165.56 294.701 165.983 294.007C166.411 293.309 167.013 292.768 167.789 292.384C168.566 291.999 169.462 291.807 170.477 291.807C171.403 291.807 172.232 291.97 172.966 292.295C173.699 292.617 174.289 293.072 174.736 293.66C175.183 294.244 175.45 294.923 175.536 295.695H173.083C172.966 295.138 172.681 294.703 172.23 294.389C171.779 294.076 171.193 293.919 170.472 293.919C169.926 293.919 169.454 294.021 169.054 294.225C168.658 294.425 168.352 294.713 168.136 295.089C167.924 295.462 167.819 295.903 167.819 296.413C167.819 296.923 167.924 297.366 168.136 297.742C168.352 298.115 168.658 298.403 169.054 298.607C169.454 298.807 169.926 298.907 170.472 298.907C171.201 298.907 171.789 298.756 172.236 298.454C172.687 298.148 172.97 297.707 173.083 297.131H175.536ZM184.137 295.266V292.001H186.579V300.825H184.137V297.419H179.626V300.825H177.184V292.001H179.626V295.266H184.137Z" fill="white"/>
<rect x="87.0547" y="178.236" width="88.2355" height="88.2355" fill="url(#pattern0)"/>
<g filter="url(#filter1_f_906_2147)">
<ellipse cx="272.104" cy="224.124" rx="38.1886" ry="41.8088" transform="rotate(-15.5387 272.104 224.124)" fill="white" fill-opacity="0.6"/>
</g>
<path d="M265.067 298.06V292.001H267.432V300.825H264.361L260.008 294.631V300.825H257.638V292.001H260.797L265.067 298.06ZM277.352 292.001V294.066H271.981V295.613H277.134V297.678H271.981V300.825H269.54V292.001H277.352ZM278.481 292.001H287.652V294.172H284.287V300.825H281.846V294.172H278.481V292.001Z" fill="white"/>
<rect x="237.641" y="181.178" width="69.4119" height="81.7649" fill="url(#pattern1)"/>
<g filter="url(#filter2_f_906_2147)">
<ellipse cx="65.4286" cy="72.3313" rx="32.025" ry="35.0609" transform="rotate(-15.5387 65.4286 72.3313)" fill="white" fill-opacity="0.6"/>
</g>
<path d="M5.97321 149.032V140.208H8.41439V149.032H5.97321ZM15.4753 140.208C16.2087 140.208 16.844 140.334 17.3812 140.585C17.9185 140.836 18.3303 141.191 18.6165 141.649C18.9028 142.108 19.0459 142.642 19.0459 143.249C19.0459 143.857 18.9028 144.391 18.6165 144.849C18.3303 145.308 17.9185 145.663 17.3812 145.914C16.844 146.165 16.2087 146.291 15.4753 146.291H12.9636V149.032H10.5224V140.208H15.4753ZM15.3342 144.338C15.7263 144.338 16.0322 144.242 16.2518 144.049C16.4714 143.857 16.5812 143.591 16.5812 143.249C16.5812 142.908 16.4714 142.642 16.2518 142.449C16.0322 142.257 15.7263 142.161 15.3342 142.161H12.9636V144.338H15.3342ZM27.5278 143.473V140.208H29.969V149.032H27.5278V145.626H23.016V149.032H20.5748V140.208H23.016V143.473H27.5278ZM36.9337 149.226C35.8984 149.226 34.9846 149.034 34.1925 148.65C33.4003 148.265 32.7846 147.726 32.3454 147.032C31.9101 146.334 31.6925 145.53 31.6925 144.62C31.6925 143.71 31.9101 142.908 32.3454 142.214C32.7846 141.516 33.4003 140.975 34.1925 140.591C34.9846 140.206 35.8984 140.014 36.9337 140.014C37.969 140.014 38.8827 140.206 39.6749 140.591C40.467 140.975 41.0807 141.516 41.516 142.214C41.9553 142.908 42.1749 143.71 42.1749 144.62C42.1749 145.53 41.9553 146.334 41.516 147.032C41.0807 147.726 40.467 148.265 39.6749 148.65C38.8827 149.034 37.969 149.226 36.9337 149.226ZM36.9337 147.044C37.4984 147.044 37.9886 146.946 38.4043 146.75C38.8239 146.553 39.1454 146.273 39.369 145.908C39.5964 145.544 39.7102 145.114 39.7102 144.62C39.7102 144.126 39.5964 143.697 39.369 143.332C39.1454 142.967 38.8239 142.687 38.4043 142.491C37.9886 142.295 37.4984 142.197 36.9337 142.197C36.369 142.197 35.8768 142.295 35.4572 142.491C35.0415 142.687 34.7199 142.967 34.4925 143.332C34.269 143.697 34.1572 144.126 34.1572 144.62C34.1572 145.114 34.269 145.544 34.4925 145.908C34.7199 146.273 35.0415 146.553 35.4572 146.75C35.8768 146.946 36.369 147.044 36.9337 147.044ZM51.326 146.267V140.208H53.6907V149.032H50.6201L46.2672 142.838V149.032H43.8966V140.208H47.0554L51.326 146.267ZM58.3987 145.508L58.1517 147.055H63.7399V149.032H55.534L56.2046 144.62L55.534 140.208H63.6811V142.185H58.1517L58.3987 143.732H63.3399V145.508H58.3987ZM68.3342 140.885L71.6225 140.208H73.4166V149.032H71.0048V142.302L68.3342 142.773V140.885ZM83.0817 145.579H84.4934V147.385H83.0817V149.032H80.6699V147.385H75.0346V145.667L79.9993 140.208H83.0817V145.579ZM80.6699 142.097L77.517 145.579H80.6699V142.097ZM94.4926 140.208C95.2259 140.208 95.8612 140.334 96.3984 140.585C96.9357 140.836 97.3475 141.191 97.6337 141.649C97.92 142.108 98.0632 142.642 98.0632 143.249C98.0632 143.857 97.92 144.391 97.6337 144.849C97.3475 145.308 96.9357 145.663 96.3984 145.914C95.8612 146.165 95.2259 146.291 94.4926 146.291H91.9808V149.032H89.5396V140.208H94.4926ZM94.3514 144.338C94.7435 144.338 95.0494 144.242 95.269 144.049C95.4886 143.857 95.5984 143.591 95.5984 143.249C95.5984 142.908 95.4886 142.642 95.269 142.449C95.0494 142.257 94.7435 142.161 94.3514 142.161H91.9808V144.338H94.3514ZM105.674 149.032L103.31 145.855H102.033V149.032H99.592V140.208H104.833C105.5 140.208 106.086 140.326 106.592 140.561C107.102 140.797 107.496 141.13 107.774 141.561C108.057 141.989 108.198 142.483 108.198 143.044C108.198 143.487 108.108 143.891 107.927 144.255C107.747 144.616 107.488 144.922 107.151 145.173C106.818 145.424 106.423 145.606 105.969 145.72L108.504 149.032H105.674ZM102.033 142.02V144.067H104.498C104.882 144.067 105.184 143.977 105.404 143.797C105.623 143.616 105.733 143.365 105.733 143.044C105.733 142.722 105.623 142.471 105.404 142.291C105.188 142.11 104.886 142.02 104.498 142.02H102.033ZM114.825 149.226C113.79 149.226 112.876 149.034 112.084 148.65C111.292 148.265 110.676 147.726 110.237 147.032C109.801 146.334 109.584 145.53 109.584 144.62C109.584 143.71 109.801 142.908 110.237 142.214C110.676 141.516 111.292 140.975 112.084 140.591C112.876 140.206 113.79 140.014 114.825 140.014C115.86 140.014 116.774 140.206 117.566 140.591C118.358 140.975 118.972 141.516 119.407 142.214C119.847 142.908 120.066 143.71 120.066 144.62C120.066 145.53 119.847 146.334 119.407 147.032C118.972 147.726 118.358 148.265 117.566 148.65C116.774 149.034 115.86 149.226 114.825 149.226ZM114.825 147.044C115.39 147.044 115.88 146.946 116.296 146.75C116.715 146.553 117.037 146.273 117.26 145.908C117.488 145.544 117.601 145.114 117.601 144.62C117.601 144.126 117.488 143.697 117.26 143.332C117.037 142.967 116.715 142.687 116.296 142.491C115.88 142.295 115.39 142.197 114.825 142.197C114.26 142.197 113.768 142.295 113.348 142.491C112.933 142.687 112.611 142.967 112.384 143.332C112.16 143.697 112.048 144.126 112.048 144.62C112.048 145.114 112.16 145.544 112.384 145.908C112.611 146.273 112.933 146.553 113.348 146.75C113.768 146.946 114.26 147.044 114.825 147.044Z" fill="white"/>
<rect x="33.9512" y="38.0907" width="34.4808" height="82.8786" transform="rotate(-20.7841 33.9512 38.0907)" fill="url(#pattern2)"/>
<g filter="url(#filter3_f_906_2147)">
<ellipse cx="215.427" cy="72.3312" rx="36.5824" ry="40.0503" transform="rotate(-15.5387 215.427 72.3312)" fill="white" fill-opacity="0.6"/>
</g>
<path d="M170.116 146.661L172.793 140.208H176.557V149.032H174.24V142.338L171.34 149.032H168.875L165.981 142.367V149.032H163.657V140.208H167.428L170.116 146.661ZM189.102 149.032H186.502L185.767 147.332H181.208L180.473 149.032H177.867L181.885 140.208H185.091L189.102 149.032ZM183.485 142.067L182.055 145.373H184.92L183.485 142.067ZM199.68 145.338C199.594 146.11 199.327 146.791 198.88 147.379C198.433 147.963 197.843 148.418 197.11 148.744C196.376 149.065 195.547 149.226 194.621 149.226C193.606 149.226 192.71 149.034 191.933 148.65C191.157 148.265 190.555 147.726 190.127 147.032C189.704 146.334 189.492 145.53 189.492 144.62C189.492 143.71 189.704 142.908 190.127 142.214C190.555 141.516 191.157 140.975 191.933 140.591C192.71 140.206 193.606 140.014 194.621 140.014C195.547 140.014 196.376 140.177 197.11 140.502C197.843 140.824 198.433 141.279 198.88 141.867C199.327 142.452 199.594 143.13 199.68 143.902H197.227C197.11 143.346 196.825 142.91 196.374 142.597C195.923 142.283 195.337 142.126 194.615 142.126C194.07 142.126 193.598 142.228 193.198 142.432C192.802 142.632 192.496 142.92 192.28 143.297C192.068 143.669 191.963 144.11 191.963 144.62C191.963 145.13 192.068 145.573 192.28 145.95C192.496 146.322 192.802 146.61 193.198 146.814C193.598 147.014 194.07 147.114 194.615 147.114C195.345 147.114 195.933 146.963 196.38 146.661C196.831 146.355 197.114 145.914 197.227 145.338H199.68ZM208.577 144.385C209.208 144.534 209.682 144.797 210 145.173C210.318 145.546 210.477 146.004 210.477 146.55C210.477 147.036 210.365 147.465 210.141 147.838C209.918 148.21 209.584 148.503 209.141 148.714C208.702 148.926 208.165 149.032 207.529 149.032H201.018L201.7 144.502L201.018 140.208H207.3C207.841 140.208 208.306 140.295 208.694 140.467C209.082 140.64 209.379 140.887 209.582 141.208C209.786 141.53 209.888 141.912 209.888 142.355C209.888 142.787 209.78 143.181 209.565 143.538C209.353 143.895 209.024 144.177 208.577 144.385ZM207.412 142.732C207.412 142.489 207.326 142.293 207.153 142.144C206.984 141.991 206.749 141.914 206.447 141.914H203.612L203.9 143.667H206.4C206.698 143.667 206.941 143.583 207.129 143.414C207.318 143.242 207.412 143.014 207.412 142.732ZM206.882 147.326C207.231 147.326 207.504 147.24 207.7 147.067C207.9 146.895 208 146.655 208 146.35C208 146.04 207.89 145.795 207.671 145.614C207.451 145.43 207.137 145.338 206.729 145.338H203.906L203.6 147.326H206.882ZM216.963 149.226C215.928 149.226 215.014 149.034 214.222 148.65C213.43 148.265 212.814 147.726 212.375 147.032C211.94 146.334 211.722 145.53 211.722 144.62C211.722 143.71 211.94 142.908 212.375 142.214C212.814 141.516 213.43 140.975 214.222 140.591C215.014 140.206 215.928 140.014 216.963 140.014C217.999 140.014 218.912 140.206 219.705 140.591C220.497 140.975 221.11 141.516 221.546 142.214C221.985 142.908 222.205 143.71 222.205 144.62C222.205 145.53 221.985 146.334 221.546 147.032C221.11 147.726 220.497 148.265 219.705 148.65C218.912 149.034 217.999 149.226 216.963 149.226ZM216.963 147.044C217.528 147.044 218.018 146.946 218.434 146.75C218.854 146.553 219.175 146.273 219.399 145.908C219.626 145.544 219.74 145.114 219.74 144.62C219.74 144.126 219.626 143.697 219.399 143.332C219.175 142.967 218.854 142.687 218.434 142.491C218.018 142.295 217.528 142.197 216.963 142.197C216.399 142.197 215.907 142.295 215.487 142.491C215.071 142.687 214.75 142.967 214.522 143.332C214.299 143.697 214.187 144.126 214.187 144.62C214.187 145.114 214.299 145.544 214.522 145.908C214.75 146.273 215.071 146.553 215.487 146.75C215.907 146.946 216.399 147.044 216.963 147.044ZM228.785 149.226C227.75 149.226 226.836 149.034 226.044 148.65C225.252 148.265 224.636 147.726 224.197 147.032C223.762 146.334 223.544 145.53 223.544 144.62C223.544 143.71 223.762 142.908 224.197 142.214C224.636 141.516 225.252 140.975 226.044 140.591C226.836 140.206 227.75 140.014 228.785 140.014C229.82 140.014 230.734 140.206 231.526 140.591C232.318 140.975 232.932 141.516 233.368 142.214C233.807 142.908 234.026 143.71 234.026 144.62C234.026 145.53 233.807 146.334 233.368 147.032C232.932 147.726 232.318 148.265 231.526 148.65C230.734 149.034 229.82 149.226 228.785 149.226ZM228.785 147.044C229.35 147.044 229.84 146.946 230.256 146.75C230.675 146.553 230.997 146.273 231.22 145.908C231.448 145.544 231.562 145.114 231.562 144.62C231.562 144.126 231.448 143.697 231.22 143.332C230.997 142.967 230.675 142.687 230.256 142.491C229.84 142.295 229.35 142.197 228.785 142.197C228.22 142.197 227.728 142.295 227.309 142.491C226.893 142.687 226.571 142.967 226.344 143.332C226.12 143.697 226.009 144.126 226.009 144.62C226.009 145.114 226.12 145.544 226.344 145.908C226.571 146.273 226.893 146.553 227.309 146.75C227.728 146.946 228.22 147.044 228.785 147.044ZM242.101 143.92L245.225 149.032H242.454L240.56 145.82L237.954 149.032H235.748V140.208H238.177V145.761L242.525 140.208H245.107L242.101 143.92Z" fill="white"/>
<rect x="132.596" y="56.2557" width="131.413" height="60.2076" transform="rotate(-13.1165 132.596 56.2557)" fill="url(#pattern3)"/>
<g filter="url(#filter4_f_906_2147)">
<ellipse cx="345.427" cy="72.3315" rx="36.046" ry="39.4631" transform="rotate(-15.5387 345.427 72.3315)" fill="white" fill-opacity="0.6"/>
</g>
<path d="M321.478 149.032H318.878L318.143 147.332H313.584L312.849 149.032H310.243L314.26 140.208H317.466L321.478 149.032ZM315.86 142.067L314.431 145.373H317.296L315.86 142.067ZM322.778 149.032V140.208H325.22V149.032H322.778ZM333.41 149.032L331.045 145.856H329.769V149.032H327.328V140.208H332.569C333.235 140.208 333.822 140.326 334.328 140.561C334.837 140.797 335.232 141.13 335.51 141.561C335.792 141.989 335.934 142.483 335.934 143.044C335.934 143.487 335.843 143.891 335.663 144.256C335.483 144.616 335.224 144.922 334.886 145.173C334.553 145.424 334.159 145.607 333.704 145.72L336.239 149.032H333.41ZM329.769 142.02V144.067H332.234C332.618 144.067 332.92 143.977 333.139 143.797C333.359 143.616 333.469 143.365 333.469 143.044C333.469 142.722 333.359 142.471 333.139 142.291C332.924 142.11 332.622 142.02 332.234 142.02H329.769ZM342.747 140.208C343.48 140.208 344.115 140.334 344.652 140.585C345.19 140.836 345.602 141.191 345.888 141.65C346.174 142.108 346.317 142.642 346.317 143.25C346.317 143.858 346.174 144.391 345.888 144.85C345.602 145.309 345.19 145.663 344.652 145.914C344.115 146.165 343.48 146.291 342.747 146.291H340.235V149.032H337.794V140.208H342.747ZM342.605 144.338C342.998 144.338 343.303 144.242 343.523 144.05C343.743 143.858 343.852 143.591 343.852 143.25C343.852 142.908 343.743 142.642 343.523 142.45C343.303 142.258 342.998 142.161 342.605 142.161H340.235V144.338H342.605ZM352.705 149.226C351.67 149.226 350.756 149.034 349.964 148.65C349.172 148.265 348.556 147.726 348.117 147.032C347.681 146.334 347.464 145.53 347.464 144.62C347.464 143.71 347.681 142.908 348.117 142.214C348.556 141.516 349.172 140.975 349.964 140.591C350.756 140.207 351.67 140.014 352.705 140.014C353.74 140.014 354.654 140.207 355.446 140.591C356.238 140.975 356.852 141.516 357.287 142.214C357.726 142.908 357.946 143.71 357.946 144.62C357.946 145.53 357.726 146.334 357.287 147.032C356.852 147.726 356.238 148.265 355.446 148.65C354.654 149.034 353.74 149.226 352.705 149.226ZM352.705 147.044C353.27 147.044 353.76 146.946 354.175 146.75C354.595 146.554 354.917 146.273 355.14 145.909C355.368 145.544 355.481 145.114 355.481 144.62C355.481 144.126 355.368 143.697 355.14 143.332C354.917 142.967 354.595 142.687 354.175 142.491C353.76 142.295 353.27 142.197 352.705 142.197C352.14 142.197 351.648 142.295 351.228 142.491C350.813 142.687 350.491 142.967 350.264 143.332C350.04 143.697 349.928 144.126 349.928 144.62C349.928 145.114 350.04 145.544 350.264 145.909C350.491 146.273 350.813 146.554 351.228 146.75C351.648 146.946 352.14 147.044 352.705 147.044ZM364.074 140.208C365.113 140.208 366.027 140.391 366.815 140.756C367.607 141.12 368.221 141.636 368.656 142.303C369.091 142.969 369.309 143.742 369.309 144.62C369.309 145.499 369.091 146.271 368.656 146.938C368.221 147.605 367.607 148.12 366.815 148.485C366.027 148.85 365.113 149.032 364.074 149.032H359.668V140.208H364.074ZM364.256 146.861C364.782 146.861 365.238 146.771 365.627 146.591C366.019 146.407 366.319 146.146 366.527 145.809C366.738 145.471 366.844 145.075 366.844 144.62C366.844 144.165 366.738 143.769 366.527 143.432C366.319 143.095 366.019 142.836 365.627 142.656C365.238 142.471 364.782 142.379 364.256 142.379H362.097V146.861H364.256ZM373.118 146.138C373.173 146.51 373.397 146.805 373.789 147.02C374.181 147.232 374.699 147.338 375.342 147.338C375.946 147.338 376.416 147.259 376.753 147.103C377.095 146.946 377.265 146.722 377.265 146.432C377.265 146.275 377.222 146.146 377.136 146.044C377.05 145.938 376.903 145.852 376.695 145.785C376.491 145.718 376.206 145.667 375.842 145.632L374.206 145.479C373.002 145.369 372.122 145.099 371.565 144.667C371.012 144.232 370.736 143.628 370.736 142.856C370.736 142.256 370.912 141.744 371.265 141.32C371.618 140.893 372.116 140.569 372.759 140.35C373.406 140.126 374.165 140.014 375.036 140.014C375.875 140.014 376.626 140.136 377.289 140.379C377.952 140.622 378.475 140.963 378.859 141.403C379.248 141.842 379.461 142.35 379.501 142.926H377.018C376.975 142.608 376.775 142.359 376.418 142.179C376.065 141.995 375.589 141.903 374.989 141.903C374.432 141.903 373.995 141.977 373.677 142.126C373.363 142.275 373.206 142.487 373.206 142.761C373.206 142.977 373.304 143.146 373.501 143.267C373.697 143.385 374.04 143.469 374.53 143.52L376.289 143.691C377.124 143.769 377.793 143.905 378.295 144.097C378.797 144.289 379.161 144.552 379.389 144.885C379.616 145.218 379.73 145.64 379.73 146.15C379.73 146.761 379.546 147.301 379.177 147.767C378.808 148.23 378.289 148.589 377.618 148.844C376.948 149.099 376.173 149.226 375.295 149.226C374.389 149.226 373.587 149.099 372.889 148.844C372.191 148.585 371.646 148.222 371.253 147.756C370.861 147.289 370.655 146.75 370.636 146.138H373.118Z" fill="white"/>
<rect x="345.426" y="17.0317" width="78.4252" height="72.6586" transform="rotate(45.0497 345.426 17.0317)" fill="url(#pattern4)"/>
<defs>
<filter id="filter0_f_906_2147" x="60.1528" y="149.723" width="142.53" height="148.802" filterUnits="userSpaceOnUse" color-interpolation-filters="sRGB">
<feFlood flood-opacity="0" result="BackgroundImageFix"/>
<feBlend mode="normal" in="SourceGraphic" in2="BackgroundImageFix" result="shape"/>
<feGaussianBlur stdDeviation="16.1765" result="effect1_foregroundBlur_906_2147"/>
</filter>
<pattern id="pattern0" patternContentUnits="objectBoundingBox" width="1" height="1">
<use xlink:href="#image0_906_2147" transform="scale(0.00166667)"/>
</pattern>
<filter id="filter1_f_906_2147" x="201.282" y="150.202" width="141.646" height="147.845" filterUnits="userSpaceOnUse" color-interpolation-filters="sRGB">
<feFlood flood-opacity="0" result="BackgroundImageFix"/>
<feBlend mode="normal" in="SourceGraphic" in2="BackgroundImageFix" result="shape"/>
<feGaussianBlur stdDeviation="16.1765" result="effect1_foregroundBlur_906_2147"/>
</filter>
<pattern id="pattern1" patternContentUnits="objectBoundingBox" width="1" height="1">
<use xlink:href="#image1_906_2147" transform="translate(0 -0.00493199) scale(0.000505561 0.000429181)"/>
</pattern>
<filter id="filter2_f_906_2147" x="0.814945" y="5.11814" width="129.228" height="134.426" filterUnits="userSpaceOnUse" color-interpolation-filters="sRGB">
<feFlood flood-opacity="0" result="BackgroundImageFix"/>
<feBlend mode="normal" in="SourceGraphic" in2="BackgroundImageFix" result="shape"/>
<feGaussianBlur stdDeviation="16.1765" result="effect1_foregroundBlur_906_2147"/>
</filter>
<pattern id="pattern2" patternContentUnits="objectBoundingBox" width="1" height="1">
<use xlink:href="#image2_906_2147" transform="translate(-0.958036 -0.0756957) scale(0.000892857 0.000371057)"/>
</pattern>
<filter id="filter3_f_906_2147" x="146.223" y="0.157185" width="138.409" height="144.348" filterUnits="userSpaceOnUse" color-interpolation-filters="sRGB">
<feFlood flood-opacity="0" result="BackgroundImageFix"/>
<feBlend mode="normal" in="SourceGraphic" in2="BackgroundImageFix" result="shape"/>
<feGaussianBlur stdDeviation="16.1765" result="effect1_foregroundBlur_906_2147"/>
</filter>
<pattern id="pattern3" patternContentUnits="objectBoundingBox" width="1" height="1">
<use xlink:href="#image3_906_2147" transform="translate(-0.0785219 -0.656587) scale(0.000329924 0.000719942)"/>
</pattern>
<filter id="filter4_f_906_2147" x="276.762" y="0.741276" width="137.329" height="143.18" filterUnits="userSpaceOnUse" color-interpolation-filters="sRGB">
<feFlood flood-opacity="0" result="BackgroundImageFix"/>
<feBlend mode="normal" in="SourceGraphic" in2="BackgroundImageFix" result="shape"/>
<feGaussianBlur stdDeviation="16.1765" result="effect1_foregroundBlur_906_2147"/>
</filter>
<pattern id="pattern4" patternContentUnits="objectBoundingBox" width="1" height="1">
<use xlink:href="#image4_906_2147" transform="translate(-0.345582 -0.109375) scale(0.000412882 0.000446429)"/>
</pattern>
<image id="image0_906_2147" width="600" height="600" xlink:href=""/>
<image id="image1_906_2147" width="1978" height="2353" xlink:href=""/>
<image id="image2_906_2147" width="4096" height="3072" xlink:href=""/>
<image id="image3_906_2147" width="4096" height="3072" xlink:href=""/>
<image id="image4_906_2147" width="4096" height="2730" xlink:href=""/>
</defs>
</svg>
