<svg width="504" height="228" viewBox="0 0 504 228" fill="none" xmlns="http://www.w3.org/2000/svg">
<path d="M173.256 0H106.898L0.695312 227.253H55.539L140.077 39.542L169.67 105.243L196.032 48.7836L173.256 0Z" fill="white"/>
<path d="M336.577 227.253H391.421L334.406 105.244L307.994 163.824L336.577 227.253Z" fill="#E63462"/>
<path d="M285.211 0H218.853L196.027 48.7836L169.666 105.243L112.65 227.253H167.494L196.027 163.824L222.439 105.243L252.032 39.542L281.626 105.243L307.987 48.7836L285.211 0Z" fill="#E63462"/>
<path d="M397.169 0H330.812L307.985 48.7836L281.624 105.243L252.031 168.571L222.437 105.243L196.025 163.824L224.609 227.253H279.452L307.985 163.824L334.397 105.243L363.99 39.542L448.529 227.253H503.372L397.169 0Z" fill="white"/>
</svg>
