<svg width="69" height="31" viewBox="0 0 69 31" fill="none" xmlns="http://www.w3.org/2000/svg">
<path d="M23.3488 0.0151367H14.3701L0 30.7642H7.42077L18.8594 5.36547L22.8636 14.2554L26.4305 6.61593L23.3488 0.0151367Z" fill="white"/>
<path d="M45.4476 30.7642H52.8684L45.1538 14.2554L41.5801 22.1818L45.4476 30.7642Z" fill="#E63462"/>
<path d="M38.4972 0.0151367H29.5185L26.4299 6.61593L22.863 14.2554L15.1484 30.7642H22.5692L26.4299 22.1818L30.0036 14.2554L34.0079 5.36547L38.0121 14.2554L41.579 6.61593L38.4972 0.0151367Z" fill="#E63462"/>
<path d="M53.646 0.0151367H44.6673L41.5787 6.61593L38.0118 14.2554L34.0076 22.8241L30.0034 14.2554L26.4297 22.1818L30.2972 30.7642H37.718L41.5787 22.1818L45.1524 14.2554L49.1567 5.36547L60.5953 30.7642H68.0161L53.646 0.0151367Z" fill="white"/>
</svg>
