<svg width="46" height="47" viewBox="0 0 46 47" fill="none" xmlns="http://www.w3.org/2000/svg">
<g clip-path="url(#clip0_671_9362)">
<mask id="mask0_671_9362" style="mask-type:alpha" maskUnits="userSpaceOnUse" x="0" y="0" width="46" height="47">
<path d="M0 0.964355H46V46.9644H0V0.964355Z" fill="white"/>
</mask>
<g mask="url(#mask0_671_9362)">
<path fill-rule="evenodd" clip-rule="evenodd" d="M46 23.9644C46 36.6661 35.7017 46.9644 23 46.9644C10.2983 46.9644 0 36.6661 0 23.9644C0 11.2626 10.2983 0.964355 23 0.964355C35.7017 0.964355 46 11.2626 46 23.9644ZM23.8242 17.9441C21.5874 18.8737 17.1158 20.7999 10.4113 23.7209C9.32267 24.1541 8.7515 24.5777 8.69975 24.9917C8.61158 25.6932 9.48942 25.9692 10.6816 26.3429C10.8445 26.3947 11.0132 26.4464 11.1857 26.5039C12.3606 26.8854 13.9399 27.3319 14.7603 27.3492C15.5058 27.3645 16.3377 27.0579 17.2558 26.4292C23.5194 22.1991 26.7528 20.062 26.956 20.016C27.0998 19.9834 27.2991 19.9413 27.4332 20.062C27.5674 20.1809 27.554 20.407 27.5406 20.4684C27.4524 20.8383 24.0139 24.0372 22.2314 25.6932C21.6756 26.2088 21.2827 26.5749 21.2022 26.6592C21.022 26.8451 20.838 27.0234 20.6617 27.1939C19.5692 28.2443 18.7527 29.0339 20.7077 30.3219C21.6468 30.941 22.3982 31.4528 23.1476 31.9626C23.966 32.5204 24.7825 33.0762 25.8405 33.77C26.1088 33.9464 26.3657 34.1284 26.6167 34.3067C27.5693 34.9871 28.4261 35.5966 29.4841 35.5008C30.0974 35.4433 30.7337 34.8664 31.0557 33.1433C31.8167 29.0684 33.3155 20.2441 33.6624 16.6063C33.6835 16.3042 33.6707 16.0008 33.6241 15.7016C33.5962 15.46 33.4785 15.2376 33.2944 15.0787C33.0203 14.8544 32.5948 14.8065 32.4032 14.8104C31.5387 14.8257 30.2124 15.2876 23.8242 17.9441Z" fill="black"/>
</g>
</g>
<defs>
<clipPath id="clip0_671_9362">
<rect width="46" height="46" fill="white" transform="translate(0 0.964355)"/>
</clipPath>
</defs>
</svg>
